<svg width="47" height="36" xmlns="https://www.w3.org/2000/svg"><path d="M31.956 21.15s0 2.25-2.236 2.25H16.283c-2.241 0-2.241-2.25-2.241-2.25v-4.5h3.136v3.6h11.637v-3.6h3.141v4.5zM43.156 9l-1.327-1.332v3.582H4.169V7.668L2.842 9C1.519 10.327.57 10.687 1.101 13.5c.531 2.803 3.1 18.166 3.483 20.25.418 2.277 2.74 2.25 2.74 2.25H38.68s2.317.027 2.736-2.25c.382-2.083 2.952-17.446 3.483-20.25.535-2.812-.414-3.172-1.741-4.5zM31.96 0H14.041S11.8 0 11.8 2.25h22.396C34.196 0 31.96 0 31.96 0zm6.718 6.75c0-2.25-2.241-2.25-2.241-2.25H9.559s-2.236 0-2.236 2.25V9h31.356V6.75z" fill="#5C789D"/></svg>