<svg width="34" height="45" xmlns="https://www.w3.org/2000/svg"><path d="M27.625 10.136c-2.031 0-3.678-1.661-3.678-3.707 0-2.052 1.647-3.713 3.678-3.713 2.031 0 3.677 1.661 3.677 3.713 0 2.046-1.646 3.707-3.677 3.707zM6.375 42.279c-2.031 0-3.678-1.661-3.678-3.707 0-2.052 1.647-3.713 3.678-3.713 2.031 0 3.677 1.661 3.677 3.713 0 2.046-1.646 3.707-3.677 3.707zM2.697 6.429c0-2.052 1.647-3.713 3.678-3.713 2.031 0 3.677 1.661 3.677 3.713 0 2.046-1.646 3.707-3.677 3.707S2.697 8.475 2.697 6.429zm31.303 0C34 2.877 31.145 0 27.625 0c-3.521 0-6.375 2.877-6.375 6.429a6.434 6.434 0 0 0 3.752 5.855c-.604 5.212-3.942 6.268-8.754 7.784-2.335.739-5.053 1.596-7.349 3.257V12.332a6.436 6.436 0 0 0 3.852-5.904c0-3.552-2.855-6.429-6.375-6.429C2.855-.001.001 2.876.001 6.428a6.437 6.437 0 0 0 3.852 5.904v20.336a6.431 6.431 0 0 0-3.852 5.904c0 3.546 2.854 6.429 6.375 6.429 3.52 0 6.375-2.882 6.375-6.429a6.423 6.423 0 0 0-3.752-5.855c.604-5.218 3.942-6.273 8.755-7.789 4.898-1.543 11.489-3.621 12.31-12.563a6.423 6.423 0 0 0 3.938-5.936z" fill="#5A638A"/></svg>