<svg width="45" height="27" xmlns="https://www.w3.org/2000/svg"><path d="M31.5 4.5h9V9h-9V4.5zm2.25 6.75h4.5v4.5h-4.5v-4.5zM36 18h4.5v4.5H36V18zm-24.75 0h22.5v4.5h-22.5V18zM4.5 18H9v4.5H4.5V18zm2.25-6.75h4.5v4.5h-4.5v-4.5zM4.5 4.5H9V9H4.5V4.5zm9 6.75H18v4.5h-4.5v-4.5zM11.25 4.5h4.5V9h-4.5V4.5zm9 6.75h4.5v4.5h-4.5v-4.5zM18 4.5h4.5V9H18V4.5zm9 6.75h4.5v4.5H27v-4.5zM24.75 4.5h4.5V9h-4.5V4.5zM41.85 0H3.15A3.16 3.16 0 0 0 0 3.15v20.7A3.16 3.16 0 0 0 3.15 27h38.7A3.159 3.159 0 0 0 45 23.85V3.15A3.16 3.16 0 0 0 41.85 0z" fill="#586A90"/></svg>