<?xml version="1.0" encoding="utf-8"?>
<!-- Generator: Adobe Illustrator 20.0.0, SVG Export Plug-In . SVG Version: 6.00 Build 0)  -->
<svg version="1.1" id="Layer_1" xmlns="http://www.w3.org/2000/svg" xmlns:xlink="http://www.w3.org/1999/xlink" x="0px" y="0px"
	 width="42px" height="82.3px" viewBox="0 0 42 82.3" style="enable-background:new 0 0 42 82.3;" xml:space="preserve">
<path d="M37.3,0H4.7C2.1,0,0,2.1,0,4.7v72.9c0,2.6,2.1,4.7,4.7,4.7h32.6c2.6,0,4.7-2.1,4.7-4.7V4.7C42,2.1,39.9,0,37.3,0z M16.4,4.4
	h9.3c0.6,0,1.1,0.5,1.1,1.1s-0.5,1.1-1.1,1.1h-9.3c-0.6,0-1.1-0.5-1.1-1.1C15.3,4.9,15.8,4.4,16.4,4.4z M21,79.8c-1.6,0-3-1.3-3-3
	c0-1.6,1.3-3,3-3c1.6,0,3,1.3,3,3C24,78.4,22.6,79.8,21,79.8z M38.4,71.2H3.6V11.1h34.8L38.4,71.2L38.4,71.2z"/>
</svg>
