<?xml version="1.0" encoding="utf-8"?>
<!-- Generator: Adobe Illustrator 20.0.0, SVG Export Plug-In . SVG Version: 6.00 Build 0)  -->
<svg version="1.1" id="Layer_1" xmlns="http://www.w3.org/2000/svg" xmlns:xlink="http://www.w3.org/1999/xlink" x="0px" y="0px"
	 width="82.8px" height="68.9px" viewBox="0 0 82.8 68.9" style="enable-background:new 0 0 82.8 68.9;" xml:space="preserve">
<style type="text/css">
	.st0{font-family:'HelveticaNeue-Bold';}
	.st1{font-size:5px;}
</style>
<path d="M139.1,10.1"/>
<path d="M80.7,0H2.1C0.9,0,0,0.9,0,2.1v50.1v5.9c0,1.1,0.9,2.1,2.1,2.1h28.8c-0.5,2.2-1.1,4.5-1.7,6.7h-1.6c-0.7,0-1.3,0.7-1.3,1.5
	v0.6h30.1v-0.6c0-0.8-0.6-1.5-1.3-1.5h-1.6c-0.5-2.2-1.1-4.5-1.7-6.7h28.8c1.1,0,2.1-0.9,2.1-2.1v-5.9V2.1C82.8,0.9,81.9,0,80.7,0z
	 M79.4,48.7h-76V3.2h76V48.7z"/>
<text transform="matrix(1 0 0 1 15.391 42.449)" class="st0 st1">Created by Carla Dias</text>
</svg>
