<?xml version="1.0" encoding="utf-8"?>
<!-- Generator: Adobe Illustrator 20.0.0, SVG Export Plug-In . SVG Version: 6.00 Build 0)  -->
<svg version="1.1" id="Layer_1" xmlns="http://www.w3.org/2000/svg" xmlns:xlink="http://www.w3.org/1999/xlink" x="0px" y="0px"
	 width="66.1px" height="86px" viewBox="0 0 66.1 86" style="enable-background:new 0 0 66.1 86;" xml:space="preserve">
<style type="text/css">
	.st0{font-family:'HelveticaNeue-Bold';}
	.st1{font-size:5px;}
</style>
<path d="M63.5,0h-61C1.1,0,0,1.1,0,2.5v80.9C0,84.8,1.1,86,2.5,86h61c1.4,0,2.5-1.1,2.5-2.5V2.5C66.1,1.1,64.9,0,63.5,0z M33,84.3
	c-1.2,0-2.2-1-2.2-2.2s1-2.2,2.2-2.2c1.2,0,2.2,1,2.2,2.2S34.2,84.3,33,84.3z M63.8,79H2.3V2.8h61.5V79z"/>
<text transform="matrix(1 0 0 1 7.037 75.6487)" class="st0 st1">Created by Carla Dias</text>
</svg>
