<!-- <?xml version="1.0" encoding="UTF-8" standalone="no"?> -->
<!-- <?xml-stylesheet type="text/css" href="../../css/svg.css" ?> -->
<svg version="1.1" class="" viewBox="0 0 915 625" x="0px" y="0px" width="915px" height="625px" style="enable-background:new 0 0 915 625;" xmlns="http://www.w3.org/2000/svg" xmlns:xlink="http://www.w3.org/1999/xlink">
<style>
  .circle-outer { fill:#a76c3d; }
  .background, .circle-inner, .rectangle { fill:#cabaac;}
  .background-right { fill: #8e404c; }
  <!-- red=e2001a -->
</style>

<rect class="background" width="565" height="625"/>
<rect style="fill: url(#circles-pattern);" x="0" y="0" width="565" height="625"/>
<rect style="fill: url(#horizontal-pattern)" x="0" y="-4" width="585" height="630"/>
<rect style="fill: url(#vertical-pattern)" x="-13" y="0" width="585" height="625"/>

<rect class="background-right" x="565" width="350" height="625"/>

<text class="title" x="740" y="25%" alignment-baseline="middle" text-anchor="middle" style="font-family: Times New Roman; font-size: 32; fill: #fff;">
  Berlin Refrence
</text>

<use xlink:href="#berlin_bear2" x="0" y="0" transform='translate(660 80) scale(.8)'/>
<!-- alignment-baseline="middle" anchor="middle" -->
<defs>

 <pattern id="horizontal-pattern" x="0" y="0" width="100" height="10" patternUnits="userSpaceOnUse" >
   <rect class="rectangle" x="0" y="0" width="100" height="5"/>
 </pattern>

 <pattern id="vertical-pattern" x="0" y="0" width="10" height="100" patternUnits="userSpaceOnUse" >
   <rect class="rectangle" x="0" y="0" width="5" height="100"/>
 </pattern>

 <pattern id="circles-pattern" x="-50" y="-10" width="100" height="100" patternUnits="userSpaceOnUse" >
   <circle class="circle-outer" cx="50" cy="50" r="43.5" stroke-width="15"/>
   <circle class="circle-inner" cx="50" cy="50" r="23" stroke-width="15"/>
 </pattern>

<g id="berlin_bear">
  <svg
     xmlns:dc="http://purl.org/dc/elements/1.1/"
     xmlns:cc="http://creativecommons.org/ns#"
     xmlns:rdf="http://www.w3.org/1999/02/22-rdf-syntax-ns#"
     xmlns:svg="http://www.w3.org/2000/svg"
     xmlns="http://www.w3.org/2000/svg"
     xmlns:xlink="http://www.w3.org/1999/xlink"
     xmlns:sodipodi="http://sodipodi.sourceforge.net/DTD/sodipodi-0.dtd"
     xmlns:inkscape="http://www.inkscape.org/namespaces/inkscape"
     version="1.1"
     width="700"
     height="700"
     viewBox="0 0 7 7"
     id="svg2"
     inkscape:version="0.47 r22583"
     sodipodi:docname="Flag_of_Berlin.svg">
    <metadata
       id="metadata82">
      <rdf:RDF>
        <cc:Work
           rdf:about="">
          <dc:format>image/svg+xml</dc:format>
          <dc:type
             rdf:resource="http://purl.org/dc/dcmitype/StillImage" />
        </cc:Work>
      </rdf:RDF>
    </metadata>
    <defs
       id="defs80">
      <inkscape:perspective
         sodipodi:type="inkscape:persp3d"
         inkscape:vp_x="0 : 350 : 1"
         inkscape:vp_y="0 : 1000 : 0"
         inkscape:vp_z="700 : 350 : 1"
         inkscape:persp3d-origin="350 : 233.33333 : 1"
         id="perspective84" />
    </defs>
    <sodipodi:namedview
       pagecolor="#ffffff"
       bordercolor="#666666"
       borderopacity="1"
       objecttolerance="10"
       gridtolerance="10"
       guidetolerance="10"
       inkscape:pageopacity="0"
       inkscape:pageshadow="2"
       inkscape:window-width="1280"
       inkscape:window-height="1004"
       id="namedview78"
       showgrid="false"
       inkscape:zoom="0.476792"
       inkscape:cx="564.73956"
       inkscape:cy="335.35077"
       inkscape:window-x="-8"
       inkscape:window-y="-8"
       inkscape:window-maximized="1"
       inkscape:current-layer="Krone" />
    <title
       id="title4">Dienstflagge der Mitglieder des Senats von Berlin</title>
    <desc
       id="desc6">die Dienstflagge der Mitglieder des Senats von Berlin</desc>
    <!-- <g
       id="Standarte">
      <rect
         fill="red"
         width="7"
         height="7"
         id="rect9"
         style="fill:#e2001a;fill-opacity:1" />
      <rect
         fill="white"
         x="1"
         y="1"
         width="5"
         height="5"
         id="rect11" />
    </g> -->
    <svg
       id="Wappen"
       x="2.1"
       y="1.2"
       width="2.8"
       height="4.6"
       viewBox="0 0 4500 7385"
       version="1.1">
      <g
         id="Krone"
         fill="#CFB53B"
         stroke="black"
         stroke-width="20"
         stroke-linecap="round"
         stroke-linejoin="round">
        <path
           d="M 550,2370 L 250,985 470,930 250,985 10,300 c 133,40 240,-60 304,80 7,-31 30,-23 35,-53 30,176 209,163 -18,497 l 14,6 c 129,-224 141,-124 226,-210 11,52 38,71 11,115 139,6 182,349 18,414 14,55 -12,69 -11,112 -79,-84 -178,-18 -256,-115 a 450,410 -7 0,0 887,-163 c -38,118 -154,92 -197,198 -15,-40 -44,-44 -51,-100 -176,-2 -259,-337 -132,-393 -41,-31 -22,-59 -30,-111 110,50 86,-48 286,115 l 11,-11 c -332,-230 -160,-293 -195,-457 16,26 34,11 51,37 -8,-119 139,-115 191,-184 68,54 210,15 230,132 11,-30 32,-19 41,-48 8,178 188,187 -78,491 l 13,7 c 155,-206 155,-105 250,-180 4,52 29,74 -3,115 137,23 138,369 -33,413 7,56 -20,67 -25,110 -68,-93 -174,-39 -239,-145 a 450,500 7 0,0 895,-55 c -52,113 -164,73 -220,173 -10,-42 -38,-49 -38,-106 -175,-23 -216,-366 -83,-406 -37,-36 -15,-61 -17,-114 103,63 91,-37 270,149 l 12,-9 c -301,-269 -124,-300 -137,-478 12,28 32,15 46,43 6,-119 152,-97 212,-159 60,62 206,40 212,159 14,-28 34,-15 46,-43 -13,178 164,209 -137,478 l 12,9 c 179,-186 167,-86 270,-149 -2,53 20,78 -17,114 133,40 92,383 -83,406 0,57 -28,64 -38,106 -56,-100 -168,-60 -220,-173 a 450,500 -7 0,0 895,55 c -65,106 -171,52 -239,145 -5,-43 -32,-54 -25,-110 -171,-44 -170,-390 -33,-413 -32,-41 -7,-63 -3,-115 95,75 95,-26 250,180 l 13,-7 c -266,-304 -86,-313 -78,-491 9,29 30,18 41,48 20,-117 162,-78 230,-132 52,69 199,65 191,184 17,-26 35,-11 51,-37 -35,175 137,227 -195,457 l 11,11 c 200,-163 176,-65 286,-115 -8,52 11,80 -30,111 127,56 44,391 -132,393 -7,56 -36,60 -51,100 -43,-106 -159,-80 -197,-198 a 450,410 7 0,0 887,163 c -78,97 -177,31 -256,115 1,-43 -25,-57 -11,-112 -164,-65 -121,-408 18,-414 -27,-44 0,-63 11,-115 85,86 97,-14 226,210 l 14,-6 c -227,-334 -48,-321 -18,-497 -25,30 28,22 35,53 64,-140 171,-40 304,-80 l -240,685 -220,-55 220,55 -300,1385 z"
           id="path15"
           style="fill:#ffe000;fill-opacity:1" />
        <g
           id="Perle+Kreuz">
          <path
             d="M 2020,740 h 460 M 2250,500 v 200"
             id="path18" />
          <circle
             id="Perle"
             cx="2250"
             cy="720"
             r="85"
             d="m 2335,720 c 0,46.9442 -38.0558,85 -85,85 -46.9442,0 -85,-38.0558 -85,-85 0,-46.9442 38.0558,-85 85,-85 46.9442,0 85,38.0558 85,85 z"
             style="fill:#ffe000;fill-opacity:1" />
        </g>
        <use
           xlink:href="#Perle+Kreuz"
           transform="rotate(7,2250,9000)"
           id="use21"
           style="fill:#ffe000;fill-opacity:1" />
        <use
           xlink:href="#Perle+Kreuz"
           transform="rotate(-7,2250,9000)"
           id="use23"
           style="fill:#ffe000;fill-opacity:1" />
        <use
           xlink:href="#Perle"
           transform="rotate(14,2250,9000)"
           id="use25"
           style="fill:#ffe000;fill-opacity:1" />
        <use
           xlink:href="#Perle"
           transform="rotate(-14,2250,9000)"
           id="use27"
           style="fill:#ffe000;fill-opacity:1" />
        <path
           d="M 404,1695 a 9000,9000 0 0,1 3692,0 c 40,10 20,113 -20,103 a 9000,9000 0 0,0 -3652,0 c -40,10 -60,-93 -20,-103"
           id="path29"
           style="fill-opacity:1;fill:#ffe000" />
        <path
           d="M 522,2242 a 9000,9000 0 0,1 3456,0 c 40,10 17,118 -23,108 a 9000,9000 0 0,0 -3410,0 c -40,10 -63,-98 -23,-108"
           id="path31"
           style="fill:#ffe000;fill-opacity:1" />
        <g
           fill="none"
           id="g33">
          <path
             d="M 314,1280 c 136,487 917,450 973,-130 c 133,507 783,489 963,-50 180,539 830,557 963,50 56,580 837,617 973,130"
             id="path35" />
          <path
             d="M 473,2020 a 9000,9000 0 0,1 3554,0"
             id="path37" />
          <path
             stroke-width="35"
             d="M 555,2355 a 9000,9000 0 0,1 3390,0"
             id="path39" />
        </g>
        <path
           id="Fugen"
           d="M 793,1962 l 45,223 m 215,-494 l 37,226 m 286,-31 l 28,228 m 240,-482 l 18,229" />
        <use
           xlink:href="#Fugen"
           transform="translate(4500,0) scale(-1,1)"
           id="use42" />
        <path
           d="M 1910,2194 a 9000,9000 0 0,1 680,0 v -434 a 340,340 0 0,0 -680,0 z"
           id="path44"
           style="fill:#ffe000;fill-opacity:1" />
        <path
           fill="none"
           d="M 2020,2190 v -430 a 230,230 0 0,1 460,0 v 430"
           id="path46"
           style="fill:#ffe000;fill-opacity:1" />
        <path
           stroke-width="25"
           d="M 2250,1533 v 652"
           id="path48" />
        <path
           d="M 2150,1370 h 200 l -30,180 h -140 z "
           id="path50"
           style="fill:#ffe000;fill-opacity:1" />
      </g>
      <svg
         id="Schild"
         x="366"
         y="2360"
         width="3768"
         height="5021"
         viewBox="0 0 376 501"
         version="1.1">
        <path
           fill="silver"
           stroke="black"
           stroke-width="6"
           d="M 3,3 H 373 V 313 C 373,354 374,393 318,425 L 188,498 58,425 C 3,393 3,354 3,313 z"
           id="path53"
           style="fill:#ffffff" />
        <svg
           id="Baer"
           x="44"
           y="23"
           width="250"
           height="414"
           viewBox="0 0 2500 4140"
           version="1.1">
          <path
             id="Koerper"
             d="M 1522,109 L 1278,118 C 1266,119 1257,125 1257,139 1258,227 1275,284 1338,330 1330,379 1335,404 1386,445 1391,405 1407,387 1432,370 1434,371 1436,371 1437,372 1434,390 1434,409 1438,420 1448,448 1497,449 1510,429 1522,458 1547,459 1567,459 1588,459 1598,444 1605,430 1617,440 1629,451 1640,465 1675,513 1681,575 1681,634 1670,635 1659,636 1648,637 L 1648,613 C 1647,579 1568,573 1550,602 1530,580 1468,584 1468,619 L 1468,630 C 1454,612 1443,593 1434,574 1409,590 1394,602 1398,659 1387,660 1376,661 1366,662 1367,728 1396,746 1632,741 1638,807 1572,844 1523,875 1395,948 1260,1028 1187,1162 1126,1268 1111,1394 1118,1516 L 1188,1485 1196,1523 C 1070,1583 840,1705 689,1775 652,1792 556,1816 536,1782 467,1663 412,1573 332,1482 189,1545 123,1603 69,1736 182,1909 369,2157 679,2159 1000,2161 1279,2043 1340,2025 L 1353,2066 C 1312,2084 1276,2097 1233,2111 1289,2331 1354,2417 1505,2551 L 1474,2574 C 1447,2558 1401,2507 1376,2483 1055,2635 935,2787 858,2944 773,3133 789,3348 825,3547 832,3580 796,3596 769,3586 695,3569 654,3495 583,3468 551,3454 512,3441 477,3446 395,3563 405,3622 416,3769 524,3822 640,3835 760,3897 839,3929 915,3981 1005,3967 1056,3962 1107,3927 1112,3873 1157,3679 1220,3473 1368,3333 1439,3263 1531,3207 1622,3164 1586,3026 1559,2888 1562,2744 L 1606,2742 C 1638,3290 1784,3405 2041,3660 2067,3686 2065,3735 2027,3750 1977,3775 1918,3777 1861,3779 1851,3921 1884,4060 1936,4117 2094,4114 2258,3989 2353,3868 2393,3818 2441,3768 2479,3719 2526,3658 2475,3587 2461,3531 2422,3371 2404,2911 2402,2847 L 2458,2848 2466,2732 C 2299,2525 2326,2201 2257,1992 2230,1907 2200,1819 2200,1729 2200,1607 2338,1378 2335,1174 2334,1088 2286,976 2287,925 2288,777 2373,809 2371,501 2370,416 2360,353 2338,266 2487,109 2282,-48 2164,50 2069,25 2057,0 1871,0 1712,0 1621,43 1522,109 z M 1234,1026 C 942,940 735,901 619,813 502,724 550,533 413,424 286,420 210,477 156,548 375,885 83,967 1074,1533 1070,1220 1129,1155 1234,1026 z" />
          <g
             id="weisse_Elemente"
             fill="white">
            <path
               id="Auge-Ohr"
               d="M 1870,299 C 1752,112 1657,93 1622,228 1608,283 1656,282 1667,241 1680,195 1702,147 1789,280 1797,291 1824,299 1839,299 z M 2153,201 C 2181,173 2214,146 2253,132 2300,116 2276,68 2217,88 2177,101 2140,132 2116,164 z" />
            <path
               id="Zaehne"
               d="M 1349,337 C 1340,368 1351,403 1378,422 1383,400 1399,380 1416,366 1385,357 1364,346 1349,337 z M 1509,390 C 1489,384 1468,380 1448,375 1444,390 1444,406 1447,415 1455,437 1492,438 1502,422 1506,416 1509,403 1509,390 z M 1521,393 C 1518,405 1516,419 1521,429 1531,448 1549,449 1565,449 1583,449 1592,437 1597,425 1574,410 1548,401 1521,393 z M 1467,653 L 1408,658 C 1405,630 1408,606 1430,590 1441,610 1453,629 1467,646 z M 1477,652.5 V 621 C 1477,588 1547,590 1548,621 V 646 z M 1557,645 V 617 C 1557,584 1638,586 1638,616 V 638 z" />
          </g>
          <g
             id="rote_Elemente"
             fill="red"
             style="fill:#e2001a;fill-opacity:1">
            <path
               id="Zunge"
               d="M 1178,378 c 1,256 379,130 499,191 -2,-16 -5,-32 -10,-48 -61,-22 -148,-7 -241,-22 -187,-30 -210,-83 -210,-122 -1,-41 -38,-43 -38,1"
               style="fill:#e2001a;fill-opacity:1" />
            <g
               id="Krallen"
               style="fill:#e2001a;fill-opacity:1">
              <path
                 id="Kralle"
                 d="M 329,3474 s 35,-13 110,26 c 36,18 58,-51 28,-60 -92,-29 -138,34 -138,34"
                 style="fill:#e2001a;fill-opacity:1" />
              <use
                 xlink:href="#Kralle"
                 transform="translate(-25,63)"
                 id="use64"
                 style="fill:#e2001a;fill-opacity:1" />
              <use
                 xlink:href="#Kralle"
                 transform="translate(-44,128)"
                 id="use66"
                 style="fill:#e2001a;fill-opacity:1" />
              <use
                 xlink:href="#Kralle"
                 transform="translate(-46,197)"
                 id="use68"
                 style="fill:#e2001a;fill-opacity:1" />
              <use
                 xlink:href="#Kralle"
                 transform="translate(-37,267)"
                 id="use70"
                 style="fill:#e2001a;fill-opacity:1" />
            </g>
            <use
               xlink:href="#Krallen"
               transform="matrix(0.98585,-0.362747,0.362747,0.98585,152.8742,556.3228)"
               id="use72"
               style="fill:#e2001a;fill-opacity:1" />
            <use
               xlink:href="#Krallen"
               transform="matrix(0.662705,0.948407,-0.717713,0.895796,2492.198,-2039.701)"
               id="use74"
               style="fill:#e2001a;fill-opacity:1" />
            <use
               xlink:href="#Krallen"
               transform="matrix(0.500922,0.739494,-0.739494,0.500922,2724.41,-1655.876)"
               id="use76"
               style="fill:#e2001a;fill-opacity:1" />
          </g>
        </svg>
      </svg>
    </svg>
  </svg>
</g>

<g id="berlin_bear2">
  <svg
     id="Wappen"
     x="0"
     y="0"
     width="200"

     viewBox="0 0 4500 7385"
     version="1.1">
    <g
       id="Krone"
       fill="#CFB53B"
       stroke="black"
       stroke-width="20"
       stroke-linecap="round"
       stroke-linejoin="round">
      <path
         d="M 550,2370 L 250,985 470,930 250,985 10,300 c 133,40 240,-60 304,80 7,-31 30,-23 35,-53 30,176 209,163 -18,497 l 14,6 c 129,-224 141,-124 226,-210 11,52 38,71 11,115 139,6 182,349 18,414 14,55 -12,69 -11,112 -79,-84 -178,-18 -256,-115 a 450,410 -7 0,0 887,-163 c -38,118 -154,92 -197,198 -15,-40 -44,-44 -51,-100 -176,-2 -259,-337 -132,-393 -41,-31 -22,-59 -30,-111 110,50 86,-48 286,115 l 11,-11 c -332,-230 -160,-293 -195,-457 16,26 34,11 51,37 -8,-119 139,-115 191,-184 68,54 210,15 230,132 11,-30 32,-19 41,-48 8,178 188,187 -78,491 l 13,7 c 155,-206 155,-105 250,-180 4,52 29,74 -3,115 137,23 138,369 -33,413 7,56 -20,67 -25,110 -68,-93 -174,-39 -239,-145 a 450,500 7 0,0 895,-55 c -52,113 -164,73 -220,173 -10,-42 -38,-49 -38,-106 -175,-23 -216,-366 -83,-406 -37,-36 -15,-61 -17,-114 103,63 91,-37 270,149 l 12,-9 c -301,-269 -124,-300 -137,-478 12,28 32,15 46,43 6,-119 152,-97 212,-159 60,62 206,40 212,159 14,-28 34,-15 46,-43 -13,178 164,209 -137,478 l 12,9 c 179,-186 167,-86 270,-149 -2,53 20,78 -17,114 133,40 92,383 -83,406 0,57 -28,64 -38,106 -56,-100 -168,-60 -220,-173 a 450,500 -7 0,0 895,55 c -65,106 -171,52 -239,145 -5,-43 -32,-54 -25,-110 -171,-44 -170,-390 -33,-413 -32,-41 -7,-63 -3,-115 95,75 95,-26 250,180 l 13,-7 c -266,-304 -86,-313 -78,-491 9,29 30,18 41,48 20,-117 162,-78 230,-132 52,69 199,65 191,184 17,-26 35,-11 51,-37 -35,175 137,227 -195,457 l 11,11 c 200,-163 176,-65 286,-115 -8,52 11,80 -30,111 127,56 44,391 -132,393 -7,56 -36,60 -51,100 -43,-106 -159,-80 -197,-198 a 450,410 7 0,0 887,163 c -78,97 -177,31 -256,115 1,-43 -25,-57 -11,-112 -164,-65 -121,-408 18,-414 -27,-44 0,-63 11,-115 85,86 97,-14 226,210 l 14,-6 c -227,-334 -48,-321 -18,-497 -25,30 28,22 35,53 64,-140 171,-40 304,-80 l -240,685 -220,-55 220,55 -300,1385 z"
         id="path15"
         style="fill:#ffe000;fill-opacity:1" />
      <g
         id="Perle+Kreuz">
        <path
           d="M 2020,740 h 460 M 2250,500 v 200"
           id="path18" />
        <circle
           id="Perle"
           cx="2250"
           cy="720"
           r="85"
           d="m 2335,720 c 0,46.9442 -38.0558,85 -85,85 -46.9442,0 -85,-38.0558 -85,-85 0,-46.9442 38.0558,-85 85,-85 46.9442,0 85,38.0558 85,85 z"
           style="fill:#ffe000;fill-opacity:1" />
      </g>
      <use
         xlink:href="#Perle+Kreuz"
         transform="rotate(7,2250,9000)"
         id="use21"
         style="fill:#ffe000;fill-opacity:1" />
      <use
         xlink:href="#Perle+Kreuz"
         transform="rotate(-7,2250,9000)"
         id="use23"
         style="fill:#ffe000;fill-opacity:1" />
      <use
         xlink:href="#Perle"
         transform="rotate(14,2250,9000)"
         id="use25"
         style="fill:#ffe000;fill-opacity:1" />
      <use
         xlink:href="#Perle"
         transform="rotate(-14,2250,9000)"
         id="use27"
         style="fill:#ffe000;fill-opacity:1" />
      <path
         d="M 404,1695 a 9000,9000 0 0,1 3692,0 c 40,10 20,113 -20,103 a 9000,9000 0 0,0 -3652,0 c -40,10 -60,-93 -20,-103"
         id="path29"
         style="fill-opacity:1;fill:#ffe000" />
      <path
         d="M 522,2242 a 9000,9000 0 0,1 3456,0 c 40,10 17,118 -23,108 a 9000,9000 0 0,0 -3410,0 c -40,10 -63,-98 -23,-108"
         id="path31"
         style="fill:#ffe000;fill-opacity:1" />
      <g
         fill="none"
         id="g33">
        <path
           d="M 314,1280 c 136,487 917,450 973,-130 c 133,507 783,489 963,-50 180,539 830,557 963,50 56,580 837,617 973,130"
           id="path35" />
        <path
           d="M 473,2020 a 9000,9000 0 0,1 3554,0"
           id="path37" />
        <path
           stroke-width="35"
           d="M 555,2355 a 9000,9000 0 0,1 3390,0"
           id="path39" />
      </g>
      <path
         id="Fugen"
         d="M 793,1962 l 45,223 m 215,-494 l 37,226 m 286,-31 l 28,228 m 240,-482 l 18,229" />
      <use
         xlink:href="#Fugen"
         transform="translate(4500,0) scale(-1,1)"
         id="use42" />
      <path
         d="M 1910,2194 a 9000,9000 0 0,1 680,0 v -434 a 340,340 0 0,0 -680,0 z"
         id="path44"
         style="fill:#ffe000;fill-opacity:1" />
      <path
         fill="none"
         d="M 2020,2190 v -430 a 230,230 0 0,1 460,0 v 430"
         id="path46"
         style="fill:#ffe000;fill-opacity:1" />
      <path
         stroke-width="25"
         d="M 2250,1533 v 652"
         id="path48" />
      <path
         d="M 2150,1370 h 200 l -30,180 h -140 z "
         id="path50"
         style="fill:#ffe000;fill-opacity:1" />
    </g>
    <svg
       id="Schild"
       x="366"
       y="2360"
       width="3768"
       height="5021"
       viewBox="0 0 376 501"
       version="1.1">
      <path
         fill="silver"
         stroke="black"
         stroke-width="6"
         d="M 3,3 H 373 V 313 C 373,354 374,393 318,425 L 188,498 58,425 C 3,393 3,354 3,313 z"
         id="path53"
         style="fill:#ffffff" />
      <svg
         id="Baer"
         x="44"
         y="23"
         width="250"
         height="414"
         viewBox="0 0 2500 4140"
         version="1.1">
        <path
           id="Koerper"
           d="M 1522,109 L 1278,118 C 1266,119 1257,125 1257,139 1258,227 1275,284 1338,330 1330,379 1335,404 1386,445 1391,405 1407,387 1432,370 1434,371 1436,371 1437,372 1434,390 1434,409 1438,420 1448,448 1497,449 1510,429 1522,458 1547,459 1567,459 1588,459 1598,444 1605,430 1617,440 1629,451 1640,465 1675,513 1681,575 1681,634 1670,635 1659,636 1648,637 L 1648,613 C 1647,579 1568,573 1550,602 1530,580 1468,584 1468,619 L 1468,630 C 1454,612 1443,593 1434,574 1409,590 1394,602 1398,659 1387,660 1376,661 1366,662 1367,728 1396,746 1632,741 1638,807 1572,844 1523,875 1395,948 1260,1028 1187,1162 1126,1268 1111,1394 1118,1516 L 1188,1485 1196,1523 C 1070,1583 840,1705 689,1775 652,1792 556,1816 536,1782 467,1663 412,1573 332,1482 189,1545 123,1603 69,1736 182,1909 369,2157 679,2159 1000,2161 1279,2043 1340,2025 L 1353,2066 C 1312,2084 1276,2097 1233,2111 1289,2331 1354,2417 1505,2551 L 1474,2574 C 1447,2558 1401,2507 1376,2483 1055,2635 935,2787 858,2944 773,3133 789,3348 825,3547 832,3580 796,3596 769,3586 695,3569 654,3495 583,3468 551,3454 512,3441 477,3446 395,3563 405,3622 416,3769 524,3822 640,3835 760,3897 839,3929 915,3981 1005,3967 1056,3962 1107,3927 1112,3873 1157,3679 1220,3473 1368,3333 1439,3263 1531,3207 1622,3164 1586,3026 1559,2888 1562,2744 L 1606,2742 C 1638,3290 1784,3405 2041,3660 2067,3686 2065,3735 2027,3750 1977,3775 1918,3777 1861,3779 1851,3921 1884,4060 1936,4117 2094,4114 2258,3989 2353,3868 2393,3818 2441,3768 2479,3719 2526,3658 2475,3587 2461,3531 2422,3371 2404,2911 2402,2847 L 2458,2848 2466,2732 C 2299,2525 2326,2201 2257,1992 2230,1907 2200,1819 2200,1729 2200,1607 2338,1378 2335,1174 2334,1088 2286,976 2287,925 2288,777 2373,809 2371,501 2370,416 2360,353 2338,266 2487,109 2282,-48 2164,50 2069,25 2057,0 1871,0 1712,0 1621,43 1522,109 z M 1234,1026 C 942,940 735,901 619,813 502,724 550,533 413,424 286,420 210,477 156,548 375,885 83,967 1074,1533 1070,1220 1129,1155 1234,1026 z" />
        <g
           id="weisse_Elemente"
           fill="white">
          <path
             id="Auge-Ohr"
             d="M 1870,299 C 1752,112 1657,93 1622,228 1608,283 1656,282 1667,241 1680,195 1702,147 1789,280 1797,291 1824,299 1839,299 z M 2153,201 C 2181,173 2214,146 2253,132 2300,116 2276,68 2217,88 2177,101 2140,132 2116,164 z" />
          <path
             id="Zaehne"
             d="M 1349,337 C 1340,368 1351,403 1378,422 1383,400 1399,380 1416,366 1385,357 1364,346 1349,337 z M 1509,390 C 1489,384 1468,380 1448,375 1444,390 1444,406 1447,415 1455,437 1492,438 1502,422 1506,416 1509,403 1509,390 z M 1521,393 C 1518,405 1516,419 1521,429 1531,448 1549,449 1565,449 1583,449 1592,437 1597,425 1574,410 1548,401 1521,393 z M 1467,653 L 1408,658 C 1405,630 1408,606 1430,590 1441,610 1453,629 1467,646 z M 1477,652.5 V 621 C 1477,588 1547,590 1548,621 V 646 z M 1557,645 V 617 C 1557,584 1638,586 1638,616 V 638 z" />
        </g>
        <g
           id="rote_Elemente"
           fill="red"
           style="fill:#e2001a;fill-opacity:1">
          <path
             id="Zunge"
             d="M 1178,378 c 1,256 379,130 499,191 -2,-16 -5,-32 -10,-48 -61,-22 -148,-7 -241,-22 -187,-30 -210,-83 -210,-122 -1,-41 -38,-43 -38,1"
             style="fill:#e2001a;fill-opacity:1" />
          <g
             id="Krallen"
             style="fill:#e2001a;fill-opacity:1">
            <path
               id="Kralle"
               d="M 329,3474 s 35,-13 110,26 c 36,18 58,-51 28,-60 -92,-29 -138,34 -138,34"
               style="fill:#e2001a;fill-opacity:1" />
            <use
               xlink:href="#Kralle"
               transform="translate(-25,63)"
               id="use64"
               style="fill:#e2001a;fill-opacity:1" />
            <use
               xlink:href="#Kralle"
               transform="translate(-44,128)"
               id="use66"
               style="fill:#e2001a;fill-opacity:1" />
            <use
               xlink:href="#Kralle"
               transform="translate(-46,197)"
               id="use68"
               style="fill:#e2001a;fill-opacity:1" />
            <use
               xlink:href="#Kralle"
               transform="translate(-37,267)"
               id="use70"
               style="fill:#e2001a;fill-opacity:1" />
          </g>
          <use
             xlink:href="#Krallen"
             transform="matrix(0.98585,-0.362747,0.362747,0.98585,152.8742,556.3228)"
             id="use72"
             style="fill:#e2001a;fill-opacity:1" />
          <use
             xlink:href="#Krallen"
             transform="matrix(0.662705,0.948407,-0.717713,0.895796,2492.198,-2039.701)"
             id="use74"
             style="fill:#e2001a;fill-opacity:1" />
          <use
             xlink:href="#Krallen"
             transform="matrix(0.500922,0.739494,-0.739494,0.500922,2724.41,-1655.876)"
             id="use76"
             style="fill:#e2001a;fill-opacity:1" />
        </g>
      </svg>
    </svg>
  </svg>
</g>

</defs>

</svg>
