<?xml version="1.0" encoding="utf-8"?>
<svg version="1.1" id="Layer_1" xmlns="http://www.w3.org/2000/svg" xmlns:xlink="http://www.w3.org/1999/xlink" x="0px" y="0px"
	 width="770px" height="1000px" viewBox="0 0 770 1000" style="enable-background:new 0 0 770 1000;" xml:space="preserve">
<style type="text/css">
	.font{font-family:'Arial-BoldMT'; fill:#FFFFFF;}
	.small-font{font-size:9.9px;}
	.font-large{font-size:56.2629px; fill:#5D5D5D;}

	#background-top{fill:#FED149;}
	#background-bottom-right{fill:#eeeeee;}
	#background-bottom-left{fill:#000;}
	#background-text-center{fill:none;}
	#background-container{fill:#ffffff; opacity:1; }

	#featured_text{x="300"}
	<!-- .font{fill:#000;} -->
	.st2{fill:#F8FFFF;}
	.st3{fill:#5D5D5D;}
	.st4{fill:#C2C2C2;}

<!-- Load Animations -->
	<!-- .animate-load-drop-down { animate: transoform(translate(0, -40) to translate(0, 40) } -->

	.font-large{fill:#000;}
	#featured-title path{fill:#fff;}
	#2 path{fill:#ff0000;}
	.text-small path{fill:#fff;}

#profile-photo{
x: 150;
width: 600px;
y: 560;
height:440px;
z-index:999;
}
.cell{
height:1000px;
}
.cell-content{
height:800px;
y:50px;
}
.boom{
width:500px;
height:800px;
}

</style>



<g id="cell-contents" transform="scale(.55) translate(310,430)">

	<text transform="matrix(0.5867 -0.1167 0.1951 0.9808 210.6703 486.3224) translate(0,5)" class="font font-large animate-load-drop-down">LETS PAIR PROGRAM</text>

	<rect id="background-container" width="770" height="1000"/>
	<polygon id="background-bottom-left" points="207.5,999.5 207.5,506.7 55.1,536 55.1,999.5 	"/>
	<polygon id="background-top" points="717.1,0.6 717.1,337 55.1,464.1 55.1,0.5 	"/>
	<polygon id="background-text-center" points="55.1,535.5 717.1,408.4 717.1,337 55.1,464.1 	"/>
	<path id="background-bottom-right" d="M717.1,999.5V408.4l-509.6,98.3v492.8C211.2,999.5,717.1,999.5,717.1,999.5z"/>
	<!-- <rect id="title_text" x="278.9" y="65.7" width="235.2" height="206.8"/> -->

	<text transform="matrix(1 0 0 1 107.8879 886.5)" class=" font small-font">AARON</text>
	<text transform="matrix(1 0 0 1 86.1616 970)" class=" font small-font">SCHLEICHKORN</text>
	<image style="overflow:visible;" width="140" height="140" xlink:href="../logos/small_version.png"  transform="matrix(0.3992 0 0 0.3992 98.0941 895.168)"></image>
	<image id="profile-photo"  xlink:href="../logos/profile_personal.png" transform=""></image>
</g>



	<symbol id="cell" viewBox="0 0 42 82.3">
	<path d="M37.3,0H4.7C2.1,0,0,2.1,0,4.7v72.9c0,2.6,2.1,4.7,4.7,4.7h32.6c2.6,0,4.7-2.1,4.7-4.7V4.7C42,2.1,39.9,0,37.3,0z M16.4,4.4
	 h9.3c0.6,0,1.1,0.5,1.1,1.1s-0.5,1.1-1.1,1.1h-9.3c-0.6,0-1.1-0.5-1.1-1.1C15.3,4.9,15.8,4.4,16.4,4.4z M21,79.8c-1.6,0-3-1.3-3-3
	 c0-1.6,1.3-3,3-3c1.6,0,3,1.3,3,3C24,78.4,22.6,79.8,21,79.8z M38.4,71.2H3.6V11.1h34.8L38.4,71.2L38.4,71.2z"/>
	 </symbol>


	 <use class="cell" xlink:href="#cell"/>





</svg>
