<?xml version="1.0" encoding="utf-8"?>
<?xml-stylesheet type="text/css" href="../../css/svg-poster.css" ?>
<svg version="1.1" id="Layer_1" xmlns="http://www.w3.org/2000/svg" xmlns:xlink="http://www.w3.org/1999/xlink" x="0px" y="0px"
	 width="770px" height="1000px" viewBox="0 0 770 1000" style="enable-background:new 0 0 770 1000;" xml:space="preserve">
<style type="text/css">
#background-text-center {color:#000000;}
.title {font-size: 85px; }
</style>


<!-- TODO
1. MAKE ICON BIGGER
2. Clean up CSS

-->

<rect class="background" x="140" y="25" width="475" height="950"/>

<!-- Positions cell-contents inside of the cell.svg -->
<g id="cell-contents" transform="scale(.55) translate(310,430)">

	<!-- CONTAINER -->
	<rect id="background-container" width="770" height="1000"/>

	<!-- TOP -->
	<polygon id="background-top" points="717.1,0.6 717.1,337 55.1,464.1 55.1,0.5 	"/>

	<text class="font-title font-title-large" x="120" y="165"> I'm AARON</text>
	<text class="font-title font-title-small" x="120" y="230"> SCHLEICHKORN</text>

	<!-- BOTTOM -->
	<path id="background-bottom-right" d="M717.1,999.5V408.4l-509.6,98.3v492.8C211.2,999.5,717.s1,999.5,717.1,999.5z"/>
	<polygon id="background-bottom-left" points="207.5,999.5 207.5,506.7 55.1,536 55.1,999.5 	"/>

	<text transform="matrix(1 0 0 1 107.8879 886.5)" class=" font small-font">AARON</text>
	<text transform="matrix(1 0 0 1 86.1616 970)" class=" font small-font">SCHLEICHKORN</text>

	<image style="overflow:visible;" width="140" height="140" xlink:href="../logos/small_version.png"  transform="matrix(0.3992 0 0 0.3992 98.0941 895.168)"></image>
	<image id="profile-photo"  xlink:href="../logos/profile_personal.png" transform=""></image>

	<!-- TEXT IN CENTER -->
	<polygon id="background-text-center" points="55.1,535.5 717.1,408.4 717.1,337 55.1,464.1 	"/>

	<text transform="matrix(0.5867 -0.1167 0.1951 0.9808 210.6703 486.3224) translate(190,20)" class="font font-large animate-load-drop-down">FE DEV</text>

</g>




	<symbol id="cell" viewBox="0 0 42 82.3">
	<path d="M37.3,0H4.7C2.1,0,0,2.1,0,4.7v72.9c0,2.6,2.1,4.7,4.7,4.7h32.6c2.6,0,4.7-2.1,4.7-4.7V4.7C42,2.1,39.9,0,37.3,0z M16.4,4.4
	 h9.3c0.6,0,1.1,0.5,1.1,1.1s-0.5,1.1-1.1,1.1h-9.3c-0.6,0-1.1-0.5-1.1-1.1C15.3,4.9,15.8,4.4,16.4,4.4z M21,79.8c-1.6,0-3-1.3-3-3
	 c0-1.6,1.3-3,3-3c1.6,0,3,1.3,3,3C24,78.4,22.6,79.8,21,79.8z M38.4,71.2H3.6V11.1h34.8L38.4,71.2L38.4,71.2z"/>
	 </symbol>


	 <use class="cell" xlink:href="#cell"/>





</svg>
