<?xml version="1.0" encoding="utf-8"?>
<svg version="1.1" id="Layer_1" xmlns="http://www.w3.org/2000/svg" xmlns:xlink="http://www.w3.org/1999/xlink" x="0px" y="0px"
	 width="770px" height="1000px" viewBox="0 0 770 1000" style="enable-background:new 0 0 770 1000;" xml:space="preserve">
<style type="text/css">
	.font{font-family:'Arial-BoldMT'; fill:#FFFFFF;}
	.small-font{font-size:9.9px;}
	.font-large{font-size:56.2629px; fill:#5D5D5D;}

	#background-top{fill:#FED149;}
	#background-bottom-right{fill:#eeeeee;}
	#background-bottom-left{fill:#000;}
	#background-text-center{fill:none;}
	#background-container{fill:#ffffff; opacity:1; }

	#featured_text{x="300"}
	<!-- .font{fill:#000;} -->
	.st2{fill:#F8FFFF;}
	.st3{fill:#5D5D5D;}
	.st4{fill:#C2C2C2;}

<!-- Load Animations -->
	<!-- .animate-load-drop-down { animate: transoform(translate(0, -40) to translate(0, 40) } -->

	.font-large{fill:#000;}
	#featured-title path{fill:#fff;}
	#2 path{fill:#ff0000;}
	.text-small path{fill:#fff;}

#profile-photo{
x: 150;
width: 600px;
y: 560;
height:440px;
z-index:999;
}
</style>

	<text transform="matrix(0.5867 -0.1167 0.1951 0.9808 210.6703 486.3224) translate(0,5)" class="font font-large animate-load-drop-down">LETS PAIR PROGRAM</text>

	<rect id="background-container" width="770" height="1000"/>
	<polygon id="background-bottom-left" points="207.5,999.5 207.5,506.7 55.1,536 55.1,999.5 	"/>
	<polygon id="background-top" points="717.1,0.6 717.1,337 55.1,464.1 55.1,0.5 	"/>
	<polygon id="background-text-center" points="55.1,535.5 717.1,408.4 717.1,337 55.1,464.1 	"/>
	<path id="background-bottom-right" d="M717.1,999.5V408.4l-509.6,98.3v492.8C211.2,999.5,717.1,999.5,717.1,999.5z"/>
	<!-- <rect id="title_text" x="278.9" y="65.7" width="235.2" height="206.8"/> -->

	<text transform="matrix(1 0 0 1 107.8879 886.5)" class=" font small-font">AARON</text>
	<text transform="matrix(1 0 0 1 86.1616 970)" class=" font small-font">SCHLEICHKORN</text>
	<image style="overflow:visible;" width="140" height="140" xlink:href="../logos/small_version.png"  transform="matrix(0.3992 0 0 0.3992 98.0941 895.168)"></image>
	<image id="profile-photo"  xlink:href="../logos/profile_personal.png" transform=""></image>

<g id="featured-title">
	<!-- <path d="M368.7,137.8l-7.4-51.8h6.4l4.7,35.6l5.7-35.6h7.4l5.4,36.2l4.8-36.2h6.3l-7.5,51.8h-6.6L381.6,99l-6.2,38.8H368.7z"/>
	<path d="M405.1,137.8V85.9h23v8.8h-16.7v11.5H427v8.7h-15.6V129h17.3v8.7H405.1z"/> -->
	<path d="M356.4,174.3l6.1,3.2c-0.9,5.7-2.5,9.9-4.6,12.6c-2.2,2.7-4.9,4.1-8.2,4.1c-4.1,0-7.5-2.4-10.2-7.1s-4-11.1-4-19.3
		c0-8.6,1.3-15.3,4-20.1c2.7-4.8,6.2-7.2,10.5-7.2c3.8,0,6.9,1.9,9.2,5.6c1.4,2.2,2.5,5.4,3.2,9.5l-6.2,2.5
		c-0.4-2.7-1.1-4.8-2.3-6.4c-1.2-1.6-2.6-2.3-4.2-2.3c-2.3,0-4.2,1.4-5.6,4.1c-1.4,2.8-2.1,7.2-2.1,13.4c0,6.6,0.7,11.2,2.1,14
		c1.4,2.8,3.2,4.2,5.5,4.2c1.7,0,3.1-0.9,4.3-2.7C355,180.8,355.9,178.1,356.4,174.3z"/>
	<path d="M366.6,167.7c0-5.3,0.5-9.7,1.4-13.3c0.7-2.6,1.7-5,2.9-7.1c1.2-2.1,2.6-3.7,4-4.7c1.9-1.4,4.2-2.1,6.7-2.1
		c4.6,0,8.2,2.4,11,7.1c2.7,4.7,4.1,11.3,4.1,19.8c0,8.4-1.4,14.9-4.1,19.6s-6.4,7.1-10.9,7.1c-4.6,0-8.3-2.4-11-7.1
		S366.6,176,366.6,167.7z M373,167.4c0,5.9,0.8,10.3,2.4,13.3c1.6,3,3.7,4.5,6.2,4.5c2.5,0,4.5-1.5,6.1-4.5c1.6-3,2.4-7.5,2.4-13.5
		c0-5.9-0.8-10.4-2.3-13.3c-1.6-2.9-3.6-4.4-6.2-4.4c-2.6,0-4.7,1.5-6.2,4.4C373.8,156.9,373,161.4,373,167.4z"/>
	<path d="M401.5,141.5H413c2.6,0,4.5,0.3,5.9,1c1.8,0.9,3.4,2.5,4.7,4.8c1.3,2.3,2.3,5.1,3,8.4c0.7,3.3,1,7.4,1,12.3
		c0,4.3-0.3,7.9-1,11c-0.8,3.8-1.9,6.8-3.3,9.2c-1.1,1.8-2.6,3.1-4.4,4.1c-1.4,0.7-3.2,1.1-5.5,1.1h-11.8V141.5z M407.8,150.2v34.3
		h4.7c1.7,0,3-0.2,3.8-0.5c1-0.4,1.9-1.1,2.5-2.2c0.7-1,1.2-2.7,1.6-5s0.6-5.5,0.6-9.5c0-4-0.2-7.1-0.6-9.2c-0.4-2.1-1-3.8-1.8-5
		s-1.7-2-2.9-2.4c-0.9-0.3-2.6-0.5-5.1-0.5H407.8z"/>
	<path d="M432.8,193.3v-51.8h23v8.8h-16.7v11.5h15.6v8.7h-15.6v14.1h17.3v8.7H432.8z"/>
	<path d="M307.3,248.9l-7.4-51.8h6.4l4.7,35.6l5.7-35.6h7.4l5.4,36.2l4.8-36.2h6.3l-7.5,51.8h-6.6l-6.2-38.8l-6.2,38.8H307.3z"/>
	<path d="M340.6,249.8l7.7-53.6h4.5l-7.8,53.6H340.6z"/>
	<path d="M354.2,232l6.1-1c0.4,3.4,1.1,5.9,2.2,7.5c1.1,1.6,2.6,2.4,4.5,2.4c2,0,3.5-0.7,4.6-2.1c1-1.4,1.5-3.1,1.5-5
		c0-1.2-0.2-2.3-0.6-3.1c-0.4-0.9-1.2-1.6-2.3-2.2c-0.7-0.4-2.4-1.2-5-2.3c-3.4-1.4-5.7-3.1-7.1-5.1c-1.9-2.9-2.9-6.3-2.9-10.4
		c0-2.6,0.4-5.1,1.3-7.4c0.9-2.3,2.2-4,3.9-5.3c1.7-1.2,3.7-1.8,6.1-1.8c3.9,0,6.8,1.4,8.8,4.3c2,2.9,3,6.7,3.1,11.4l-6.3,0.5
		c-0.3-2.7-0.8-4.6-1.7-5.7c-0.9-1.2-2.2-1.8-4-1.8c-1.8,0-3.2,0.6-4.3,1.9c-0.7,0.8-1,1.9-1,3.2c0,1.2,0.3,2.3,0.9,3.1
		c0.8,1.1,2.7,2.3,5.8,3.5c3,1.2,5.3,2.4,6.8,3.7c1.5,1.3,2.6,3,3.4,5.3c0.8,2.2,1.2,5,1.2,8.3c0,3-0.5,5.8-1.5,8.3
		c-1,2.6-2.4,4.5-4.2,5.8c-1.8,1.3-4.1,1.9-6.7,1.9c-3.9,0-6.9-1.5-9-4.5C355.9,242.2,354.6,237.8,354.2,232z"/>
	<path d="M391.7,248.9v-43.1h-9.2V197h24.6v8.8h-9.2v43.1H391.7z"/>
	<path d="M419.3,248.9v-21.8L408,197h7.3l7.3,20.5l7.1-20.5h7.2l-11.4,30.1v21.7H419.3z"/>
	<path d="M440.2,248.9v-51.4h6.3v42.7h15.6v8.7H440.2z"/>
	<path d="M466.5,248.9V197h23v8.8h-16.7v11.5h15.6v8.7h-15.6v14.1h17.3v8.7H466.5z"/>
</g>
<g id="2" class="text-small" transform="translate(0,20)">
	<path d="M287,262l1.6-0.2c0.1,0.6,0.3,1,0.6,1.2c0.3,0.3,0.7,0.4,1.2,0.4c0.5,0,1-0.1,1.2-0.3c0.3-0.2,0.4-0.5,0.4-0.8
		c0-0.2-0.1-0.4-0.2-0.5c-0.1-0.1-0.3-0.3-0.6-0.4c-0.2-0.1-0.6-0.2-1.4-0.4c-0.9-0.2-1.5-0.5-1.9-0.8c-0.5-0.5-0.8-1-0.8-1.7
		c0-0.4,0.1-0.8,0.4-1.2c0.2-0.4,0.6-0.7,1-0.8c0.5-0.2,1-0.3,1.6-0.3c1,0,1.8,0.2,2.4,0.7c0.5,0.5,0.8,1.1,0.8,1.8l-1.7,0.1
		c-0.1-0.4-0.2-0.7-0.5-0.9s-0.6-0.3-1.1-0.3c-0.5,0-0.9,0.1-1.2,0.3c-0.2,0.1-0.3,0.3-0.3,0.5c0,0.2,0.1,0.4,0.3,0.5
		c0.2,0.2,0.7,0.4,1.6,0.6c0.8,0.2,1.4,0.4,1.8,0.6c0.4,0.2,0.7,0.5,0.9,0.9c0.2,0.4,0.3,0.8,0.3,1.3c0,0.5-0.1,0.9-0.4,1.3
		s-0.6,0.7-1.1,0.9c-0.5,0.2-1.1,0.3-1.8,0.3c-1.1,0-1.9-0.2-2.4-0.7C287.5,263.7,287.1,263,287,262z"/>
	<path d="M297.4,264.7l-3-8.4h1.8l2.1,6.2l2-6.2h1.8l-3,8.4H297.4z"/>
	<path d="M306.9,261.7v-1.4h3.6v3.3c-0.4,0.3-0.9,0.6-1.5,0.9c-0.7,0.3-1.4,0.4-2,0.4c-0.9,0-1.6-0.2-2.3-0.6
		c-0.7-0.4-1.1-0.9-1.5-1.6c-0.3-0.7-0.5-1.4-0.5-2.2c0-0.9,0.2-1.6,0.5-2.3c0.4-0.7,0.9-1.2,1.6-1.6c0.5-0.3,1.2-0.4,2-0.4
		c1,0,1.8,0.2,2.4,0.7c0.6,0.4,1,1,1.1,1.8l-1.7,0.3c-0.1-0.4-0.3-0.7-0.7-1c-0.3-0.2-0.7-0.4-1.2-0.4c-0.7,0-1.3,0.2-1.8,0.7
		s-0.7,1.2-0.7,2.1c0,1,0.2,1.7,0.7,2.2c0.4,0.5,1,0.7,1.7,0.7c0.4,0,0.7-0.1,1.1-0.2c0.4-0.1,0.7-0.3,0.9-0.5v-1.1H306.9z"/>
	<path d="M312.1,263.1h1.6v1.1c0,0.5,0,0.8-0.1,1.1c-0.1,0.3-0.2,0.5-0.5,0.7c-0.2,0.2-0.5,0.4-0.8,0.5l-0.3-0.7
		c0.3-0.1,0.6-0.3,0.7-0.4c0.1-0.2,0.2-0.4,0.2-0.8h-0.8V263.1z"/>
	<path d="M325.7,264.7h-1.8l-0.7-1.9h-3.3l-0.7,1.9h-1.8l3.3-8.4h1.8L325.7,264.7z M322.6,261.4l-1.2-3.1l-1.1,3.1H322.6z"/>
	<path d="M326.7,264.7v-8.4h1.6l3.4,5.6v-5.6h1.6v8.4h-1.7l-3.4-5.5v5.5H326.7z"/>
	<path d="M335,264.7v-8.4h1.7v8.4H335z"/>
	<path d="M338.3,264.7v-8.4h2.5l1.5,5.7l1.5-5.7h2.5v8.4h-1.6v-6.6l-1.7,6.6h-1.6l-1.7-6.6v6.6H338.3z"/>
	<path d="M355.6,264.7h-1.8l-0.7-1.9h-3.3l-0.7,1.9h-1.8l3.3-8.4h1.8L355.6,264.7z M352.5,261.4l-1.2-3.1l-1.1,3.1H352.5z"/>
	<path d="M357.5,264.7v-6.9H355v-1.4h6.6v1.4h-2.5v6.9H357.5z"/>
	<path d="M362.7,264.7v-8.4h1.7v8.4H362.7z"/>
	<path d="M365.7,260.6c0-0.9,0.1-1.6,0.4-2.1c0.2-0.4,0.4-0.8,0.8-1.1s0.7-0.6,1.1-0.8c0.5-0.2,1.1-0.3,1.8-0.3c1.2,0,2.2,0.4,3,1.1
		c0.7,0.8,1.1,1.8,1.1,3.2c0,1.4-0.4,2.4-1.1,3.2c-0.7,0.8-1.7,1.1-2.9,1.1c-1.2,0-2.2-0.4-3-1.1C366,263,365.7,261.9,365.7,260.6z
		 M367.4,260.6c0,0.9,0.2,1.7,0.7,2.2c0.4,0.5,1,0.7,1.7,0.7c0.7,0,1.2-0.2,1.7-0.7s0.6-1.2,0.6-2.2c0-1-0.2-1.7-0.6-2.1
		s-1-0.7-1.7-0.7c-0.7,0-1.3,0.2-1.7,0.7C367.6,258.9,367.4,259.6,367.4,260.6z"/>
	<path d="M375.1,264.7v-8.4h1.6l3.4,5.6v-5.6h1.6v8.4h-1.7l-3.4-5.5v5.5H375.1z"/>
	<path d="M383.1,262l1.6-0.2c0.1,0.6,0.3,1,0.6,1.2s0.7,0.4,1.2,0.4c0.5,0,1-0.1,1.2-0.3c0.3-0.2,0.4-0.5,0.4-0.8
		c0-0.2-0.1-0.4-0.2-0.5c-0.1-0.1-0.3-0.3-0.6-0.4c-0.2-0.1-0.6-0.2-1.4-0.4c-0.9-0.2-1.5-0.5-1.9-0.8c-0.5-0.5-0.8-1-0.8-1.7
		c0-0.4,0.1-0.8,0.4-1.2c0.2-0.4,0.6-0.7,1-0.8c0.5-0.2,1-0.3,1.6-0.3c1,0,1.8,0.2,2.4,0.7c0.5,0.5,0.8,1.1,0.8,1.8l-1.7,0.1
		c-0.1-0.4-0.2-0.7-0.5-0.9s-0.6-0.3-1.1-0.3c-0.5,0-0.9,0.1-1.2,0.3c-0.2,0.1-0.3,0.3-0.3,0.5c0,0.2,0.1,0.4,0.3,0.5
		c0.2,0.2,0.7,0.4,1.6,0.6c0.8,0.2,1.4,0.4,1.8,0.6c0.4,0.2,0.7,0.5,0.9,0.9c0.2,0.4,0.3,0.8,0.3,1.3c0,0.5-0.1,0.9-0.4,1.3
		s-0.6,0.7-1.1,0.9c-0.5,0.2-1.1,0.3-1.8,0.3c-1.1,0-1.9-0.2-2.4-0.7C383.6,263.7,383.2,263,383.1,262z"/>
	<path d="M391.3,263.1h1.6v1.1c0,0.5,0,0.8-0.1,1.1c-0.1,0.3-0.2,0.5-0.5,0.7c-0.2,0.2-0.5,0.4-0.8,0.5l-0.3-0.7
		c0.3-0.1,0.6-0.3,0.7-0.4c0.1-0.2,0.2-0.4,0.2-0.8h-0.8V263.1z"/>
	<path d="M401.7,261.7v-1.4h3.6v3.3c-0.4,0.3-0.9,0.6-1.5,0.9c-0.7,0.3-1.4,0.4-2,0.4c-0.9,0-1.6-0.2-2.3-0.6
		c-0.7-0.4-1.1-0.9-1.5-1.6c-0.3-0.7-0.5-1.4-0.5-2.2c0-0.9,0.2-1.6,0.5-2.3c0.4-0.7,0.9-1.2,1.6-1.6c0.5-0.3,1.2-0.4,2-0.4
		c1,0,1.8,0.2,2.4,0.7s1,1,1.1,1.8l-1.7,0.3c-0.1-0.4-0.3-0.7-0.7-1c-0.3-0.2-0.7-0.4-1.2-0.4c-0.7,0-1.3,0.2-1.8,0.7
		s-0.7,1.2-0.7,2.1c0,1,0.2,1.7,0.7,2.2s1,0.7,1.7,0.7c0.4,0,0.7-0.1,1.1-0.2c0.4-0.1,0.7-0.3,0.9-0.5v-1.1H401.7z"/>
	<path d="M406.9,264.7v-8.4h3.6c0.9,0,1.5,0.1,1.9,0.2c0.4,0.2,0.7,0.4,1,0.8c0.2,0.4,0.4,0.8,0.4,1.3c0,0.6-0.2,1.1-0.6,1.6
		c-0.4,0.4-0.9,0.7-1.7,0.8c0.4,0.2,0.7,0.4,0.9,0.7c0.2,0.3,0.6,0.7,1,1.4l1,1.6h-2l-1.2-1.8c-0.4-0.7-0.7-1.1-0.9-1.2
		c-0.2-0.2-0.3-0.3-0.5-0.3c-0.2-0.1-0.5-0.1-0.9-0.1h-0.3v3.5H406.9z M408.6,259.9h1.2c0.8,0,1.3,0,1.5-0.1
		c0.2-0.1,0.4-0.2,0.5-0.4s0.2-0.4,0.2-0.6c0-0.3-0.1-0.5-0.2-0.7c-0.2-0.2-0.4-0.3-0.6-0.3c-0.1,0-0.5,0-1.2,0h-1.3V259.9z"/>
	<path d="M422.9,264.7h-1.8l-0.7-1.9H417l-0.7,1.9h-1.8l3.3-8.4h1.8L422.9,264.7z M419.8,261.4l-1.2-3.1l-1.1,3.1H419.8z"/>
	<path d="M423.8,264.7v-8.4h2.7c1,0,1.7,0,2,0.1c0.5,0.1,0.9,0.4,1.2,0.8s0.5,1,0.5,1.6c0,0.5-0.1,0.9-0.3,1.3
		c-0.2,0.4-0.4,0.6-0.7,0.8s-0.6,0.3-0.9,0.4c-0.4,0.1-1,0.1-1.8,0.1h-1.1v3.2H423.8z M425.5,257.8v2.4h0.9c0.7,0,1.1,0,1.3-0.1
		c0.2-0.1,0.4-0.2,0.5-0.4c0.1-0.2,0.2-0.4,0.2-0.7c0-0.3-0.1-0.6-0.3-0.8s-0.4-0.3-0.7-0.4c-0.2,0-0.6-0.1-1.2-0.1H425.5z"/>
	<path d="M431.6,264.7v-8.4h1.7v3.3h3.3v-3.3h1.7v8.4h-1.7v-3.7h-3.3v3.7H431.6z"/>
	<path d="M440,264.7v-8.4h1.7v8.4H440z"/>
	<path d="M448.6,261.7l1.6,0.5c-0.3,0.9-0.7,1.6-1.3,2c-0.6,0.4-1.3,0.7-2.2,0.7c-1.1,0-2-0.4-2.7-1.1s-1.1-1.8-1.1-3.1
		c0-1.4,0.4-2.5,1.1-3.2c0.7-0.8,1.7-1.2,2.8-1.2c1,0,1.9,0.3,2.5,0.9c0.4,0.4,0.7,0.9,0.9,1.5l-1.7,0.4c-0.1-0.4-0.3-0.8-0.6-1
		c-0.3-0.3-0.7-0.4-1.1-0.4c-0.6,0-1.1,0.2-1.5,0.7c-0.4,0.4-0.6,1.2-0.6,2.2c0,1.1,0.2,1.8,0.6,2.3c0.4,0.4,0.9,0.7,1.5,0.7
		c0.4,0,0.8-0.1,1.2-0.4C448.2,262.7,448.5,262.3,448.6,261.7z"/>
	<path d="M451.3,262l1.6-0.2c0.1,0.6,0.3,1,0.6,1.2c0.3,0.3,0.7,0.4,1.2,0.4c0.5,0,1-0.1,1.2-0.3c0.3-0.2,0.4-0.5,0.4-0.8
		c0-0.2-0.1-0.4-0.2-0.5c-0.1-0.1-0.3-0.3-0.6-0.4c-0.2-0.1-0.6-0.2-1.4-0.4c-0.9-0.2-1.5-0.5-1.9-0.8c-0.5-0.5-0.8-1-0.8-1.7
		c0-0.4,0.1-0.8,0.4-1.2c0.2-0.4,0.6-0.7,1-0.8c0.5-0.2,1-0.3,1.6-0.3c1,0,1.8,0.2,2.4,0.7c0.5,0.5,0.8,1.1,0.8,1.8l-1.7,0.1
		c-0.1-0.4-0.2-0.7-0.5-0.9c-0.2-0.2-0.6-0.3-1.1-0.3c-0.5,0-0.9,0.1-1.2,0.3c-0.2,0.1-0.3,0.3-0.3,0.5c0,0.2,0.1,0.4,0.3,0.5
		c0.2,0.2,0.7,0.4,1.6,0.6c0.8,0.2,1.4,0.4,1.8,0.6c0.4,0.2,0.7,0.5,0.9,0.9s0.3,0.8,0.3,1.3c0,0.5-0.1,0.9-0.4,1.3
		c-0.3,0.4-0.6,0.7-1.1,0.9c-0.5,0.2-1.1,0.3-1.8,0.3c-1.1,0-1.9-0.2-2.4-0.7C451.7,263.7,451.4,263,451.3,262z"/>
	<path d="M459.4,263.1h1.6v1.1c0,0.5,0,0.8-0.1,1.1c-0.1,0.3-0.2,0.5-0.5,0.7c-0.2,0.2-0.5,0.4-0.8,0.5l-0.3-0.7
		c0.3-0.1,0.6-0.3,0.7-0.4c0.1-0.2,0.2-0.4,0.2-0.8h-0.8V263.1z"/>
	<path d="M466,264.7v-8.4h3.6c0.9,0,1.5,0.1,1.9,0.2c0.4,0.2,0.7,0.4,1,0.8c0.2,0.4,0.4,0.8,0.4,1.3c0,0.6-0.2,1.1-0.6,1.6
		c-0.4,0.4-0.9,0.7-1.7,0.8c0.4,0.2,0.7,0.4,0.9,0.7c0.2,0.3,0.6,0.7,1,1.4l1,1.6h-2l-1.2-1.8c-0.4-0.7-0.7-1.1-0.9-1.2
		c-0.2-0.2-0.3-0.3-0.5-0.3c-0.2-0.1-0.5-0.1-0.9-0.1h-0.3v3.5H466z M467.7,259.9h1.2c0.8,0,1.3,0,1.5-0.1c0.2-0.1,0.4-0.2,0.5-0.4
		s0.2-0.4,0.2-0.6c0-0.3-0.1-0.5-0.2-0.7c-0.2-0.2-0.4-0.3-0.6-0.3c-0.1,0-0.5,0-1.2,0h-1.3V259.9z"/>
	<path d="M474.4,264.7v-8.4h6.2v1.4h-4.5v1.9h4.2v1.4h-4.2v2.3h4.7v1.4H474.4z"/>
	<path d="M489.8,264.7h-1.8l-0.7-1.9h-3.3l-0.7,1.9h-1.8l3.3-8.4h1.8L489.8,264.7z M486.7,261.4l-1.2-3.1l-1.1,3.1H486.7z"/>
	<path d="M496,261.7l1.6,0.5c-0.3,0.9-0.7,1.6-1.3,2c-0.6,0.4-1.3,0.7-2.2,0.7c-1.1,0-2-0.4-2.7-1.1s-1.1-1.8-1.1-3.1
		c0-1.4,0.4-2.5,1.1-3.2c0.7-0.8,1.7-1.2,2.8-1.2c1,0,1.9,0.3,2.5,0.9c0.4,0.4,0.7,0.9,0.9,1.5l-1.7,0.4c-0.1-0.4-0.3-0.8-0.6-1
		c-0.3-0.3-0.7-0.4-1.1-0.4c-0.6,0-1.1,0.2-1.5,0.7c-0.4,0.4-0.6,1.2-0.6,2.2c0,1.1,0.2,1.8,0.6,2.3c0.4,0.4,0.9,0.7,1.5,0.7
		c0.4,0,0.8-0.1,1.2-0.4C495.6,262.7,495.9,262.3,496,261.7z"/>
	<path d="M501,264.7v-6.9h-2.5v-1.4h6.6v1.4h-2.5v6.9H501z"/>
</g>
<g id="" class="text-small">
	<path d="M362.7,77.2v-8.8h6v1.5h-4.3V72h3.7v1.5h-3.7v3.7H362.7z"/>
	<path d="M370.2,77.2v-8.8h3.7c0.9,0,1.6,0.1,2.1,0.2c0.4,0.2,0.8,0.4,1,0.8c0.3,0.4,0.4,0.9,0.4,1.4c0,0.7-0.2,1.2-0.6,1.6
		c-0.4,0.4-1,0.7-1.7,0.8c0.4,0.2,0.7,0.5,1,0.7c0.3,0.3,0.6,0.7,1,1.4l1.1,1.7H376l-1.3-1.9c-0.5-0.7-0.8-1.1-0.9-1.3
		c-0.2-0.2-0.3-0.3-0.5-0.4s-0.5-0.1-0.9-0.1H372v3.7H370.2z M372,72.1h1.3c0.9,0,1.4,0,1.6-0.1c0.2-0.1,0.4-0.2,0.5-0.4
		c0.1-0.2,0.2-0.4,0.2-0.7c0-0.3-0.1-0.5-0.2-0.7c-0.2-0.2-0.4-0.3-0.7-0.3c-0.1,0-0.6,0-1.3,0H372V72.1z"/>
	<path d="M378.7,72.9c0-0.9,0.1-1.7,0.4-2.3c0.2-0.4,0.5-0.9,0.8-1.2c0.3-0.4,0.7-0.6,1.1-0.8c0.5-0.2,1.2-0.3,1.9-0.3
		c1.3,0,2.3,0.4,3.1,1.2s1.2,1.9,1.2,3.4c0,1.4-0.4,2.5-1.2,3.3c-0.8,0.8-1.8,1.2-3.1,1.2c-1.3,0-2.4-0.4-3.1-1.2
		C379.1,75.4,378.7,74.3,378.7,72.9z M380.6,72.8c0,1,0.2,1.8,0.7,2.3c0.5,0.5,1,0.8,1.8,0.8s1.3-0.3,1.7-0.8
		c0.5-0.5,0.7-1.3,0.7-2.3c0-1-0.2-1.8-0.7-2.3c-0.4-0.5-1-0.7-1.8-0.7c-0.7,0-1.3,0.3-1.8,0.8S380.6,71.8,380.6,72.8z"/>
	<path d="M388.7,77.2v-8.8h1.7l3.6,5.9v-5.9h1.7v8.8h-1.8l-3.6-5.8v5.8H388.7z"/>
	<path d="M399.6,77.2v-7.3h-2.6v-1.5h7v1.5h-2.6v7.3H399.6z"/>
	<path d="M405.1,77.2v-8.8h6.5v1.5h-4.8v2h4.4v1.5h-4.4v2.4h4.9v1.5H405.1z"/>
	<path d="M413.3,77.2v-8.8h1.7l3.6,5.9v-5.9h1.7v8.8h-1.8l-3.6-5.8v5.8H413.3z"/>
	<path d="M422.2,68.4h3.3c0.7,0,1.3,0.1,1.7,0.2c0.5,0.2,1,0.4,1.3,0.8s0.6,0.9,0.8,1.4c0.2,0.6,0.3,1.3,0.3,2.1
		c0,0.7-0.1,1.4-0.3,1.9c-0.2,0.6-0.5,1.2-0.9,1.6c-0.3,0.3-0.7,0.5-1.3,0.7c-0.4,0.1-0.9,0.2-1.6,0.2h-3.4V68.4z M424,69.9v5.8h1.3
		c0.5,0,0.9,0,1.1-0.1c0.3-0.1,0.5-0.2,0.7-0.4s0.3-0.5,0.5-0.9s0.2-0.9,0.2-1.6c0-0.7-0.1-1.2-0.2-1.6c-0.1-0.4-0.3-0.6-0.5-0.9
		s-0.5-0.3-0.8-0.4c-0.2-0.1-0.7-0.1-1.5-0.1H424z"/>
</g>
</svg>
