<?xml-stylesheet type="text/css" href="../../css/svg.css" ?>
<svg class="tile" viewBox="0 100 1000 400" xmlns="http://www.w3.org/2000/svg" version="1.1" xmlns:xlink="http://www.w3.org/1999/xlink">
<!--
<style>
.yellow, .st0{fill:#C8C469;}
.blue, .st1{fill:#13256F;}
.red, .st2 {fill:#814D4F;}
.none, .st3 {fill:none;}
.background{fill: #eee;}
</style>
-->
  <rect x="0" y="0" width="1000" height="500"
    style="fill: url(#pattern1);" />
  <defs>
  <pattern id="pattern1"
           x="0" y="0" width="200" height="200"
           patternUnits="userSpaceOnUse" >

  <rect x="0" y="0" width="200" height="200" style="fill: #eee;" />
  <use xlink:href="#tilegroup" x="0" y="0" width="200" height="200"/>

  </pattern>
</defs>

  <defs>
    <g id="tilegroup">
  <use xlink:href="#tile" x="0" y="0" width="100" height="100"/>
  <use transform="translate(200, 0) scale(-1, 1) " xlink:href="#tile" x="0" y="0" width="100" height="100"/>
<g transform="translate(0,200) scale(1,-1)">
    <use xlink:href="#tile" x="0" y="0" width="100" height="100"/>
    <use transform="translate(200, 0) scale(-1, 1) " xlink:href="#tile" x="0" y="0" width="100" height="100"/>
  </g>
    </g>
  </defs>

<symbol id="tile" x="0px" y="0px" width="494px"
	 height="494px" viewBox="0 0 494 494" style="enable-background:new 0 0 494 494;" xml:space="preserve">

  <polygon id="yellow_1_" class="yellow" points="421.5,66.5 474.5,66.5 474.5,63.5 420.5,63.5 	"/>
	<path id="blue_4_" class="blue" d="M97.8,428.8c0,0,10.2-7.8,6.8-15.8s-10-10.3-14.6-10.7s-10.7,1-13.4,3.3
		c-3.3,2.8-6.6,9.1-4.7,17.3c1.7,7.7,4.8,11.6,9.3,16.5c4.6,5,8.1,7.1,14.2,8.8c4.8,1.3,10.8,0,10.8,0s8.2-1.4,16.9-7
		c10.2-6.5,22.7-16.3,30.3-26.3c15.7-20.5,22.9-32.6,28.5-42.5c6.1-10.8,15.1-32.2,19.8-52.3c2.2-9.3,4.4-25.1,4.4-25.1
		s-0.3-2.3,5.7-2c6,0.3,15.7-4.3,19-5.3c3.3-1,20-3.3,24-3.3c4,0,11-0.7,15-4s4-3.3,4-3.3s4.7-8.3,4-16c-0.7-7.7-4-12.8-4-12.8
		s-7.3-15.5-9-37.5c-1.7-22-4.8-35.3-3-54.7c0.9-9.9,2.2-18.2,3.3-25c0,0,11.1-54.7,50.3-95.3c15-15.5,23.3-23.5,41.7-35.8
		c0,0-24.4-1.8-27.7-0.5s-27.2,23.3-27.2,23.3c-20,20.7-31,39.3-33.8,44.2c-9.2,15.5-18.5,37.5-20.7,44.8
		c-2.7,8.9-5.3,20.4-5.3,20.4s-2.6,15.6-2.8,27.5c-0.2,12-0.8,19.5-0.5,30.5c0,0,2,29.8,3,37.8s0.2,24.8,5.2,29.5l-2.8,1.2l-50.2,8
		c0,0-7.3,2-7.6,11c-0.3,9-2,31.4-5.3,43.7s-9.8,28.3-14.8,39c-6.2,13.5-9.5,19.5-18.2,33.2c-8.1,12.7-10.1,14.1-17,21
		c-5.5,5.5-13.2,13-25.2,15.2C106.2,430,102.1,430.6,97.8,428.8z"/>
	<path id="red_1_" class="red" d="M433.2,451.8c-1.1,4.5,3.6,7.7,3.6,7.7l7.5,2c-1,0-3.8,1.5-3.8,1.5s0,0,0.2,2.2s9,10.2,9,10.2
		c-4-1-5.5,1.5-5.5,1.5c-0.7,0.5-13.1,0-13.1,0l-0.1,0.6l-1.7,0.8c0.2,2-2.1,2.3-2.1,2.3c0.5,0.7-0.2,1.6-0.2,1.6
		c-2.4,1.6-4.9,1.8-6.9,2.5c0,0,0.8,1.8-1.8,2.3l1.2,0.5l-2.7,0.8c0,0-3.5,3.3-2.6,3.8l-3.4,6L494,494l1.9-78.2
		c-0.7,0.1-2,0-3.5,0.2c-1,0.2-2.4,1.1-3.2,1.4c-1.4,0.4-3.3,1.4-3.8,3.4c-0.3,1.1-1.3,1.6-2,2.4c-0.7,0.8-0.5,3.2-1.7,4.8
		c-0.7,0.9-1.5,4.4-1.6,5.4c-0.1,0.8-0.5,1.3-0.7,2.7c-0.2,1.8,0.2,2.6,0.2,2.6l-0.6,4.4l0.5,0.7l-0.4,0c-2.8,1.5-2.8,5-2.8,5
		l-2.8-0.8c0,0-0.1-0.2-2-2.3c-1.2-1.3-3.2-2-5-1.9c-1.6,0.1-2.5,1-2.5,1l-6.3-3.6c0,0-1.5-1.8-2.8-1.8s-5.5,0.5-5.5,0.5
		s-1.2-2.2-3.2-1.8s-3.8-0.8-3.8-0.8l-2.4-1c0,0-7.8-1.8-9.8,1.5c-2.9,4.7,1.3,10.4,1.3,10.4l1.5,2.1l2,0.9L433.2,451.8z"/>
	<path id="red_2_" class="red" d="M42.2,60.8c-4.5,1.1-7.7-3.6-7.7-3.6l-2-7.5c0,1-1.5,3.8-1.5,3.8s0,0-2.2-0.2s-10.2-9-10.2-9
		c1,4-1.5,5.5-1.5,5.5c-0.5,0.7,0,13.1,0,13.1L16.5,63l-0.8,1.7c-2-0.2-2.3,2.1-2.3,2.1c-0.7-0.5-1.6,0.2-1.6,0.2
		c-1.6,2.4-1.8,4.9-2.5,6.9c0,0-1.8-0.8-2.3,1.8l-0.5-1.2l-0.8,2.7c0,0-3.3,3.5-3.8,2.6l-6,3.4L0,0l78.2-1.9c-0.1,0.7,0,2-0.2,3.5
		c-0.2,1-1.1,2.4-1.4,3.2c-0.4,1.4-1.4,3.3-3.4,3.8c-1.1,0.3-1.6,1.3-2.4,2c-0.8,0.7-3.2,0.5-4.8,1.7c-0.9,0.7-4.4,1.5-5.4,1.6
		c-0.8,0.1-1.3,0.5-2.7,0.7c-1.8,0.2-2.6-0.2-2.6-0.2l-4.4,0.6l-0.7-0.5l0,0.4c-1.5,2.8-5,2.8-5,2.8l0.8,2.8c0,0,0.2,0.1,2.3,2
		c1.3,1.2,2,3.2,1.9,5c-0.1,1.6-1,2.5-1,2.5l3.6,6.3c0,0,1.8,1.5,1.8,2.8S54,44.5,54,44.5s2.2,1.2,1.8,3.2s0.8,3.8,0.8,3.8l1,2.4
		c0,0,1.8,7.8-1.5,9.8c-4.7,2.9-10.4-1.3-10.4-1.3L43.5,61l-0.9-2L42.2,60.8z"/>
	<path id="blue_3_" class="blue" d="M440.5,79.5v-63h16.2c0,0,7,42.8,7,48.2s2.5,10.5,7.8,25s0.8,21,0.8,21s-2.5,4.8-7.2,13
		s-14.5,8.8-14.5,8.8l0,0c0,0,0,0-4,0s-10.5-4.4-10.5-4.4s0-0.1-4-3.1s-4.8-13-4.5-16s4.2-6.8,4.2-6.8s2.5-2.2,8-3s8.8,2.2,8.8,2.2
		l3.4,3.1c0,0,5.4,6.6,8.7-0.4c0.8-1.7,1.6-1.9,1.9-4.9c0,0,2.2-11.2-16.8-13.5l-2-0.1C443.6,85.6,440.4,86.2,440.5,79.5z"/>
	<path id="blue_5_" class="blue" d="M495.1,317.6l-0.4-65.5l-3.6,0.1l-7.2,1c0,0-3,3.5-6,4.8s-4-1.2-6.5,1s-6.7,2.2-8.7,7.8
		s-3.7,13.5-2.5,16.2s6.8,9.2,9.8,9.2s5,0.2,7.3-3.2s1.8-5.8,3.5-5.5s3.3,1.8,2.8,6.2s0,18,0,18l-5,6.2c0,0-4.5-0.8-7.2,0.5
		s-8.2,6-8.2,6s-8.5,4.2-16.8,6.8s-16.5,5.2-21,8.8s-15,18.4-15,18.4s-1.5,2.5-1.8,7s-0.5,12.8-0.5,12.8s-2,1.1-4-3.1
		c0,0-0.4-1.2-0.8-1.9c-0.4-0.7-1-1.1-0.7-2.8c0,0,0.5-1.8-0.4-4.2c-1.5-4.2-2.2-4.1-3.2-6.6c0,0-0.8-2.9-0.7-3.3
		c0.1-0.4-0.5-3.3-2.5-3.3c-3,0-4.5-1.6-5-2.3c-0.6-0.7-2.2-1-2.8-0.8c0,0-0.5,0.2-0.7,0.4c-0.2,0.2,0,0.4,0,0.4
		c-1-0.2-1.6-0.4-2-0.4c-1.1-0.1-3-1.2-3-1.2c-0.7-0.1-0.7,0.6-0.7,0.6c-1.3-0.5-3.1-0.9-3.1-0.9c-1.8,0.2-1.3,1.1-1.3,1.1
		s-1.8-0.5-2.8-0.8s-1.1,0.9-1.1,0.9s-1.2-0.6-2.9-1.3c-1.7-0.8-1.8,0.7-1.8,0.7c-1.4-0.8-3.3-0.1-3.3-0.1c-1.8,0.7-2.8,1.5-2.8,1.5
		s-3.3,2.7-1.2,6.1c1.2,1.9,4.6,5.3,7.6,6.9c4.4,2.2,5.6,2.4,5.6,2.4s9,1.4,10.6,1.6s5.6,2.6,5.6,2.6l5.9,7.2c0,0,1.9,1.5,4.4,2.2
		s2.1,3.4,2.1,3.4s0.9,3.8,2.5,5.2s2.6,3.2,2.6,3.2s-0.9,2.6-0.8,3.1l-5.9-6.2c0,0-5-2.8-6-4s-4.2-1.9-4.2-1.9s-0.9-2.9-2.9-3.5
		s-4.9-0.8-4.9-0.8s-0.6-1.9-2.1-2.6s-3.2-0.6-3.2-0.6s-2-0.1-3.1-1.5s-4.5-1-4.5-1s-2.8,0.2-5.4,0.6s-4.6,0.4-6.2,1.6s-5,3.1-6.5,5
		s-2.2,3.4-2.2,3.4s-1,3.6,0,4.6s0.9,2.1,3.5,2.6s4.8,2.9,4.8,2.9s2.1,0.6,4.4,0.9s13.2,0,13.2,0s6.8-2.5,10.6-2.2s5.2,0.6,8.4,2
		s4,2.1,4,2.1s5.5,7.8,5.6,8.4c0.5,2.5,1.4,4.4,1.4,4.4s-1-1.2-1.8-1.9s-2.4-0.2-2.4-0.2s-0.3-0.4-1.6-1.2s-2.3-0.3-2.3-0.3
		s-1.7-1.2-5,0.4c0,0-5.7,2.2-6.6,5.2c0,0-1.5,3.1-0.2,5.1c0,0-0.7,1.1,0.3,3.4v0.8c0,0-0.9,1.6,0.2,3c0,0-0.5,4.2,0,5.2
		s0.5,1,0.5,1c-1.2,0.5-3.9,3.4-3.9,3.4c-2,1.2-2.6,4.6-2.6,4.6l-2.5,1.4c-1.6-2.6-10.5-2.8-10.5-2.8c-3-0.4-5.1,0.2-5.1,0.2
		s-3.5,1.7-6,0.2c-0.7-0.4-0.3-1.8-0.8-2.3c-1.4-1.3-1.1-3-1.1-3s1.3,1.3,4.5,0.8s5.1-1,5.9-1.5c0.9-0.6,3.3-1.6,4-3.3
		c0.7-1.7,0.5-2.5,0.6-2.9c0.1-0.3,0.3-7.2-2.8-9.8c-3.1-2.5-4.5-3.4-9.1-3.5c-4.6-0.1-2.8-0.1-2.8-0.1s-2.9,0.6-5.8,2
		c-1.9,1-3.3,0.7-5.7,5.9c-1.3,2.9-0.8,5.2-1.2,8.6s-2.8,6.1-1.4,10.4s2.8,14,2.8,14c1.8,2.8,2.2,7,2.2,7s-1.2,4.4-0.5,6.4
		s2.5,3,3.1,4.6s-0.5,10.8-0.5,10.8l-3.9,1.1c0,0-4.9,1.5-5,9.8l-0.1,1.4c0,0-0.1,1.8-2.8,0.5s-2.1-1.1-2.1-1.1s-0.9-4.1-6.5-4.9
		s-12.8-0.2-12.8-0.2s-18.1,3.2-28.1,9.5c0,0-5,3.6-4.6,3.5s73-0.6,73.6-0.8s-0.5-4.4-2.1-5.9c-1.8-1.7-0.1-5.2,1-8.4
		s1.4-5.5,1.4-5.5s1.9-11.7,5.1-11.7c3.6,0,3.1,1.5,3.1,1.5l-0.7,4.8c0,0,0.4,3.1,4,3.6s6.1-3.9,6.1-3.9l1.3-2.1
		c0,0,0.3-1.8,3.2-0.9l1.4,2.9c0,0,0.8,2,2.5,2.1s3.6,0.5,5-1.6s2.9-6.4,2.9-6.4s0.9-2.4,3-0.6l0.9,1.5c0,0,1.6,2.1,2.4,2.3
		s4.2,0.1,5.9-2.7c1.9-3,3.4-6.6,3.4-6.6l0.8-2.2c0,0,3.3,0.6,5.6,0.4s3.2-1.7,3.2-1.7s1.1-1.4,1.2-3.6s-1.8-4-1.8-4
		s2.5-1.4,2.8-1.5s3.8-0.1,3.8-0.1s3.6-1.2,4.3-3.3s0.6-4.6-0.2-6.9s-2.1-4.1-1.4-6s1.2-2.6,1.2-2.6l-0.6-2.9l2.9-0.1
		c0,0,2.3,5.2,6.1,5.9c4.4,0.8,7.2,0.1,7.6,0c0.9-0.1,6.3-0.6,10.9-5.6c3-3.2,5.4-5.4,5.4-5.4l1.4-1.8c0,0,2.2-1,3.1-2.6
		c0.7-1.2,0.7-4,0.8-6.4c0.1-1.2-0.6-8.4-1.4-8.8s-1.7-1.8-1.9-1.8s-1-2.2-1-2.2c-0.4-1.2-1.5-2.2-1.9-2.9s-1.9-1.2-1.9-1.2
		l-2.1-1.5l-0.4-1.4c0,0-3.1-2.4-4.9-0.1s-1.8,3.1-1.8,3.1s-0.8,1.6,0.8,3.4s3.2,1.9,3.2,1.9s2.2,0.6,2.9,2.8s1.8,3.4,1.8,3.4
		l-0.5,6.8c0,0-3.6,3.5-4.8,3.8s-3.6,0.2-3.6,0.2s-9.5-3.8-9.8-7.9s-0.3-18.2,0.2-18.5c0.4-0.2,1.6-0.7,2.4-2.6
		c0.2-0.6,0.3-1.6,0.5-2.2c0.8-2.6,2.8-2.2,2.8-2.2l6.9,0.2c0,0,1.2-0.3,2.8-2.8s3.8-1.6,3.8-1.6s1.5,0.4,1.9,0.6s2,2.5,5.5,2.2
		s5.5-2.4,5.5-2.4s1.5-1.8,2.8-1.9s4.8,1.1,4.8,1.1s2.4,0.9,5.6-2.6c3.2-3.4,6.8-2.8,7.2-2.8s7.8,0.8,7.8,0.8l-0.3-27
		c0-0.2-2.5,0.2-2.6,0.4c-1.7,2-8.3,3.8-8.3,3.8c-1.5,2.7-3.3,5.1-5.8,5.6c-4.4,0.7-6,3.9-6,3.9c-0.2,0.4-0.4,0.7-0.9,1.1
		c-1.7,1.5-2.1,1.4-5,0.6s-5.9,1.1-5.9,1.1l-0.2,0.1c-1.8,0.9-3,2.5-3,2.5s-2.4,2.9-3.4,2.7s-4.1-0.4-4.1-1.7c0-0.7,0.5-1.6,0.9-2.2
		c0,0,0.5-1-0.8-1s-2,0-3.7,0.5c-13.2,4-15.4,9.2-15.4,9.2s-3,4.4-2.4,15.3c0.8,13.7-0.5,15.7-0.5,15.7s0.2,3.8,3,7.5
		s8.5,7.8,10.2,8.8s-2.9,1-2.9,1s-6.5-1.9-10.4-6.2c-0.7-0.8-1.4-1.6-2-2.5c0,0-1.2-2-2-2.4s-1-4.2-1-4.2s0-2.9-1.9-4.1
		s-2.2-5.7-2.2-5.7c0-2.2-0.6-16.6-0.6-16.6s0.2-8,7.2-14.2c6.5-5.8,11.5-10.5,15.8-12c0,0,1.9-0.5,4.4-1.5s3.4-2.1,3.6-2.1
		s0.1-0.6,3.8-1.4c0,0,4-2.9,9.1-3.2c0,0,2.2-5.9,9.6-7.5c0,0,3.1-7,12.8-11.2c1.5-0.6,4.6-2.5,7-4
		C491.7,318.7,494.2,317.6,495.1,317.6z"/>
	<path id="blue_1_" class="blue" d="M-0.9,153l-0.4-27.5c0,0,7.5,0,7.8,0s4,0.6,7.2-2.8c3.2-3.4,5.6-2.6,5.6-2.6s3.5,1.2,4.8,1.1
		s2.8-1.9,2.8-1.9s2-2.1,5.5-2.4s5.1,2,5.5,2.2s1.9,0.6,1.9,0.6s2.2,0.9,3.8-1.6s2.8-2.8,2.8-2.8l6.9,0.2c0,0,2.1,0.4,2.8-2.2
		c0.2-0.6,0.3-1.6,0.5-2.2c0.8-1.9,2-2.4,2.4-2.6c0.5-0.2,0.4-14.4,0.2-18.5s-9.8-7.9-9.8-7.9s-2.5,0-3.6,0.2s-4.8,3.8-4.8,3.8
		L40.3,93c0,0,1.1,1.2,1.8,3.4s2.9,2.8,2.9,2.8s1.8,0.1,3.2,1.9s0.8,3.4,0.8,3.4s0,0.9-1.8,3.1s-4.9-0.1-4.9-0.1l-0.4-1.4l-2.1-1.5
		c0,0-1.5-0.6-1.9-1.2s-1.5-1.8-1.9-2.9c0,0-0.8-2.2-1-2.2s-1.1-1.5-1.9-1.8s-1.5-7.5-1.4-8.8c0.1-2.5,0.1-5.2,0.8-6.4
		c0.9-1.5,3.1-2.6,3.1-2.6l1.4-1.8c0,0,2.4-2.1,5.4-5.4c4.6-5,10-5.5,10.9-5.6c0.4-0.1,3.2-0.8,7.6,0c3.9,0.7,6.1,5.9,6.1,5.9
		l2.9-0.1l-0.6-2.9c0,0,0.5-0.8,1.2-2.6s-0.5-3.8-1.4-6s-1-4.8-0.2-6.9s4.3-3.3,4.3-3.3s3.6,0.1,3.8-0.1s2.8-1.5,2.8-1.5
		s-1.9-1.8-1.8-4s1.2-3.6,1.2-3.6s0.9-1.6,3.2-1.7s5.6,0.4,5.6,0.4l0.8-2.2c0,0,1.5-3.6,3.4-6.6c1.7-2.8,5.1-2.9,5.9-2.7
		s2.4,2.3,2.4,2.3l0.9,1.5c2.1,1.8,3-0.6,3-0.6s1.5-4.2,2.9-6.4s3.2-1.8,5-1.6s2.5,2.1,2.5,2.1l1.4,2.9c2.9,0.9,3.2-0.9,3.2-0.9
		l1.3-2.1c0,0,2.4-4.4,6.1-3.9c3.6,0.5,4,3.6,4,3.6l-0.7,4.8c0,0-0.5,1.5,3.1,1.5c3.1,0,5.1-11.7,5.1-11.7s0.3-2.2,1.4-5.5
		s3.3-7.6,1-8.4c-1.9-0.7-2.5-6.9-1.9-7.2s70.6,0.9,71,0.8s-2,3-2,3c-13.4,8.9-28.3,9.6-28.3,9.6s-7.1,0.5-12.8-0.2
		s-6.5-4.9-6.5-4.9s0.5,0.1-2.1-1.1s-2.8,0.5-2.8,0.5l-0.1,1.4c-0.1,8.2-5,9.8-5,9.8l-3.9,1.1c0,0,0.9,9.1,1.5,10.8s2.4,2.6,3.1,4.6
		s-0.5,6.4-0.5,6.4s-0.7,2.4,1,5.1c0,0,0.6,11.6,2,15.9s-0.9,7-1.4,10.4s0.1,5.8-1.2,8.6c-2.4,5.2-3.8,4.9-5.7,5.9
		c-2.9,1.5-5.8,2-5.8,2s1.8,0-2.8-0.1s-6-1-9.1-3.5s-2.9-9.4-2.8-9.8s-0.1-1.2,0.6-2.9c0.7-1.7,3.1-2.8,4-3.3c0.8-0.5,2.7-1,5.9-1.5
		c3.2-0.5,4.5,0.8,4.5,0.8s0.3-1.7-1.1-3c-0.5-0.5-0.1-1.9-0.8-2.3c-2.5-1.5-6,0.2-6,0.2s-2.1,0.6-5.1,0.2c0,0-8.9-0.1-10.5-2.8
		l-2.5,1.4c0,0-0.6,3.4-2.6,4.6c0,0-2.6,2.9-3.9,3.4c0,0,0,0,0.5,1s0,5.2,0,5.2c1,1.4,0.2,3,0.2,3v0.8c1,2.3,0.3,3.4,0.3,3.4c1.3,2-0.2,5.1-0.2,5.1c-0.9,3-6.6,5.2-6.6,5.2c-3.2,1.6-5,0.4-5,0.4s-0.9,0.4-2.3-0.3s-1.6-1.2-1.6-1.2s-1.6,0.6-2.4-0.2
		s-1.8-1.9-1.8-1.9s0.9,1.9,1.4,4.4c0.1,0.6,5.6,8.4,5.6,8.4s0.9,0.8,4,2.1s4.5,1.8,8.4,2s10.6-2.2,10.6-2.2s11-0.2,13.2,0
		s4.4,0.9,4.4,0.9s2.1,2.4,4.7,2.9s2.5,1.6,3.5,2.6s0,4.6,0,4.6s-0.8,1.5-2.2,3.4s-4.9,3.8-6.5,5s-3.6,1.2-6.2,1.6
		c-2.6,0.4-5.4,0.6-5.4,0.6s-3.4,0.4-4.5-1s-3.1-1.5-3.1-1.5s-1.8,0.1-3.2-0.6s-2.1-2.6-2.1-2.6s-2.9-0.1-4.9-0.8s-2.9-3.5-2.9-3.5
		s-3.2-0.6-4.2-1.9s-6-4-6-4l-5.9-6.2c0.1,0.5-0.8,3.1-0.8,3.1s1,1.8,2.6,3.2s2.5,5.2,2.5,5.2s0.4,3,2.9,3.8s4.4,2.2,4.4,2.2
		l5.9,6.6c0,0,4,2.4,5.6,2.6s10.6,1.6,10.6,1.6s1.2,0.1,5.6,2.4c3,1.5,6.4,5,7.6,6.9c2.1,3.4-1.2,6.1-1.2,6.1s-1,0.9-2.8,1.5
		c0,0-1.9,0.6-3.3-0.1c0,0-0.2,1.4-1.8,0.7c-1.7-0.8-2.9-1.3-2.9-1.3s0,1.2-1.1,0.9c-1.1-0.3-2.8-0.8-2.8-0.8s0.4,0.9-1.3,1.1
		c0,0-1.8-0.4-3.1-0.9c0,0,0,0.7-0.7,0.6c0,0-1.9-1.1-3-1.2c-0.4,0-1-0.2-2-0.4c0,0,0.1,0.2,0,0.4c-0.2,0.2-0.7,0.4-0.7,0.4
		c-0.6,0.2-2.2-0.1-2.8-0.8c-0.6-0.7-2-2.3-5-2.3c-2.1,0-2.6-2.9-2.5-3.3c0.1-0.4-0.7-3.3-0.7-3.3c-1-2.5-1.7-2.5-3.2-6.6
		c-0.9-2.4-0.4-4.2-0.4-4.2c0.3-1.6-0.2-2-0.7-2.8c-0.4-0.7-0.8-1.9-0.8-1.9c-2-4.2-4-2.8-4-2.8s-0.2,8.2-0.5,12.8s-1.8,7-1.8,7
		S73.6,155,69.1,158.5s-12.8,6.2-21,8.8s-17,7.2-17,7.2s-5.5,4.8-8.2,6s-7.2,0.5-7.2,0.5l-4.7,5.8c0,0,0.5,13.5,0,18s1,6,2.8,6.2
		s1.3-2,3.5-5.5s4.3-3.2,7.3-3.2s8.5,6.5,9.8,9.2s-0.5,10.8-2.5,16.2s-6.2,5.5-8.7,7.8s-3.5-0.2-6.5,1s-6,4.8-6,4.8l-11.6,1.5
		l-0.2-63.2c0,0,8.5-6.6,11.1-7.8c9.6-4.2,12.8-11.2,12.8-11.2c7.4-1.6,9.6-7.5,9.6-7.5c5.1-0.4,9.1-3.2,9.1-3.2
		c3.7-0.9,3.6-1.4,3.8-1.4s1.1-1.1,3.6-2.1s4.4-1.5,4.4-1.5c4.2-1.5,9.3-6.2,15.8-12c7.1-6.2,7.2-14.2,7.2-14.2s-0.6-14.3-0.6-16.6
		c0,0-0.3-4.5-2.2-5.7s-1.9-4.1-1.9-4.1s-0.2-3.8-1-4.2s-2-2.4-2-2.4c-0.6-0.9-1.3-1.7-2-2.5c-3.9-4.3-10.4-6.2-10.4-6.2
		s-4.7,0-2.9,1s7.5,5,10.2,8.8c2.8,3.8,3,7.5,3,7.5s-1.3,2-0.5,15.7c0.7,12-2.9,15.2-2.9,15.2s-1.6,5.4-14.8,9.3
		c-1.7,0.5-2.4,0.5-3.7,0.5s-0.8-1-0.8-1c0.4-0.6,0.9-1.5,0.9-2.2c0-1.2-3.1-1.4-4.1-1.7s-3.4,2.7-3.4,2.7s-1.2,1.6-3,2.5l-0.2,0.1
		c0,0-3,1.9-5.9,1.1s-3.3-0.8-5,0.6c-0.5,0.4-0.7,0.8-0.9,1.1c0,0-1.6,3.2-6,3.9c-2.5,0.4-4.3,2.8-5.8,5.6c0,0-7.6,2.3-9.3,4.2
		C0.6,151.9-0.9,153.2-0.9,153z"/>
	<path id="blue" class="blue" d="M49.2,430.5c0,0,1.6-16.2-11.4-16h-6.3c0,0-1.3-11.3-6-14v-11c0,0-1.3-7.7,5.3-10
		c0,0,1.6,5.4,8.2,9.5c4.5,2.8,7.7,3,11.5,1.7c3.3-1.2,5.7-2.8,7-6.2c1.1-2.6,3-9-2-14.3c-5-5.3-11-8.7-15-9.3c-3-0.5-11-1-17.7,7.3
		c-6.7,8.3-9.7,20.3-9.7,20.3s-4.3,16.3-4,24.7c0.3,8.3,1,62.3,1,62.3h40.3L49.2,430.5z"/>
	<path id="yellow" class="yellow" d="M-9.7,484.2c-0.2,5.1-0.3,10-0.4,10c-0.4-0.1,147.7,2.4,150.5,1.4c3.8-1.3,11.5-7.9,15.5-12
		c6.4-6.5,14.8-13.9,32.7-34c7.1-8,15.4-19.9,22.2-32.2c4.8-8.5,7.4-14.4,11.5-23.6c4.6-10.4,10.5-27.4,10.5-27.4
		c2-5.2,5.4-17,5.9-21.4s-0.9-9.8-0.9-9.8c-0.4,0,28.5,7.6,39,7.2s32.6,3,36.2,2.9s7-2.9,7-2.9s12.4,0.5,16.7-0.2s3.5-6.5,3.5-6.5
		s8.7-17,12.2-31.1c2-8,1.7-20,1.7-20s-0.2-8-1.3-13c-1-5-2.6-15.3-3.3-18c-3.4-13-9.6-27.9-13.2-39.5c-7.6-24.9-6.9-49.4-7.2-66.8
		c-0.8-48.6,26.8-80,26.8-80s16.4-22.8,38.7-27.8c0,0,7.5-1.3,9.9-0.8c0.8,0.2,1.1,1.4,1.5,2.6c0.6,1.8,2.8,3,4.4,3
		c1.9,0,1.8-0.7,1.8-0.7s0-0.9,1.1-0.8c0.8,0.1,1.6,0.5,1.5,2.5c-0.2,3.2,1.1,4.5,1.1,4.5l0.1,1.1c-0.1,1.8-0.4,2.1-0.4,2.1
		c-0.3,0.3-0.6,0.4-0.9,0.4c0,0-0.7,0-1,0.2c-0.2,0.2-0.4,0.4-0.5,0.7c-0.1,1.5-0.3,3.2-0.3,3.6s-0.8,1.5-1.4,4.4s1.9,5.6,3.5,6.9
		s6.1-0.1,6.1-0.1s2.2-0.6,3.7-4.6s3.5-13,3.5-13s0.4-1.4,1-6.4s-1.2-11.9-1.2-11.9l-0.7-7.1c0.2-6.5,1.2-5.2,1.2-5.2l33.8,0.6
		c0,0,1.8-1.3,1.8,4.8c0,2.6-0.1,5.8,0.3,7.7c0.9,3.9,1.2,5.1,1.2,5.1c3,4.5,3.2,18.5,3.2,18.5v16c0,0-0.1,0.9,1.9,2l0.4,0.2
		c0,0,2.1,1.3,3.6,1.3l8.4,0.4c0,0,4.8,0.8,5.1-6.1c0.6-18.1,2.4-72,1.8-72c-1.9-0.1-111.3,0.5-111.3,0.5
		c-5.3,3.5-13.5,9.7-17.2,12.4c-3.4,2.5-9.6,8.1-14.2,12.1s-13.4,12.4-18,17.8S318.7,57.4,314.2,64c0,0-22.7,36.5-28,88.8
		c0,0,0.5,36.6,4.3,54.7c1.5,7.2,2.1,13.1,5.3,20.5c2.3,5.3,6.3,15.7,6.3,15.7c1.7,5,3.5,11.5,3.8,14.3c0.5,4.5,1.2,13.7-3.5,15
		c0,0-5.8,0.2-5.2,6.2c0.7,8.2,4,7.9,4,7.9s2.5-0.5,2.4-1.8s0.8-1.5,0.8-1.5s0,0,1.5-0.2s1.6,1.6,1.6,3.1s-1.2,1.1-1.2,1.1l0.1,3.6
		l1.9,0.2c0,0-0.3-1.4,0.4-1.9l1.4-0.7c1.1-0.2,1.9-0.9,2.6,1c0.6,1.4-2.6,9.3-3.8,11c-0.4,0.5-0.7,0.8-1.1,1c0,0-1,0.6-2.2,0.6
		s-1.9,0-2.6,0.7s-0.4,1.8,0.1,2.1s0.9,1.2,1.7,1.4s0.9,2.4,0.9,2.4l0,0.7c-0.3,2.7-0.1,2.5-1.7,2.7c-1,0.1-2.5,0.2-3.7,0.2
		c-1.3,0.1-0.2,0.1-3.3,0s-2.8-0.6-6.8,1.6c-4.8,2.8-6.1-3.8-6.1-3.8l0.2-5c0,0,0.5-3-3.8-3.6s-3.9-1.6-4.8-2.6s-20.8,0.5-21.5,0.5
		s-15.1,0.6-27.3,2s-11.9,3.2-14.3,8s-2.8,14.6-2.8,14.6s-2.5,8.1-6.1,18.4s-13.6,32.5-13.6,32.5s-2.9,6.5-16.9,28.9
		c-15.7,25.1-36.5,38.1-36.5,38.1c-12.4,9.2-12.5,9.4-24.8,13.8c0,0-10.8,5.8-31,4.5c-4.5-0.3-14.9-4.1-17.6-6c-4.4-3-7.9-5.8-9.5-7
		s-3.2-2.2-6.9-1.6s-3.5,7.5-3.5,7.5v4.8c0,0,0.6,7.6,0.2,10.1s-0.4,2.5-3.6,3.9c-1,0.4-44,0.7-45.1,0.9C-5,473.2-9.2,473-9.7,484.2
		z"/>
</symbol>
</svg>
