<?xml version="1.0"?>
<svg xmlns="http://www.w3.org/2000/svg" height="987" width="514" xmlns:xlink="http://www.w3.org/1999/xlink">
<use stroke-width="32" stroke="#f00" xlink:href="#outer_shield" fill="#fff"/>
<g stroke="#fff" stroke-width="8" fill="none">
<path id="outer_shield" d="m495.2 730.9c0 131.6-106.7 238.3-238.2 238.3s-238.2-106.7-238.2-238.3l-0.004-360.9h476.5z"/>
</g>
<g id="bear">
<path id="tounge" d="m199.3 463.2s11.34 24.67 45.5 8.17c9.34-4.17 25.67-9.67 40.67-2.33l4-2.34s-27.5-12.33-51.5 2.34c-8.8 3.1-27.2 9-38.7-5.9z" fill="#f00"/>
<path id="body" d="m376.3 504.1s-4 69.33-38.33 149c7 5.33 33.67 24.33 31.67 82 0 6.66 1.33 26 9.659 39.66 8.671 10.34 13.67 16 17.34 20 3.659 4 4.659 8.67-2.67 15-2.671 4.34-11 23.34-13.67 29.34-3.329 6-15.33 38.33-52 36-4.329 3.33-7.829 6.5-9.04 7.13-1.06-0.42-3.189-0.99-2.689-1.7 0.49-0.71 3.76-4.75 3.76-5.18 0-0.42-5.18-1.63-5.82-1.49s-8.159 6.74-8.939 6.81-2.77-1.42-2.63-2.34 4.12-4.97 4.26-5.6c0.14-0.641-4.76-2.42-5.54-2.28-0.779 0.15-6.81 6.89-7.59 7.17-0.78 0.29-2.91-1.63-3.05-2.2-0.14-0.56 4.04-5.25 4.04-5.96s-3.4-3.399-4.11-3.399-7.45 4.25-8.3 4.109c-0.86-0.14-2.84-1.279-2.84-1.91 0-0.64 6.53-4.97 6.67-6.609 0.14-1.63-1.92-2.05-1.99-3.54-0.069-1.49 3.36-22.1 45.48-36.22 4.38-3.131 6.75-5.631 6.619-8.5-0.119-2.881-4.869-5.75-7-6.25-2.119-0.5-51.12 1.369-52.87-63.13 0.25-4.75 1.25-18.25-10.75-23.75s-44-23.5-50-101.2c-7.75 0.25-48.75 3.5-68.25 3.5-6.5 0-25.5 0.5-37-7.75-2.75 1.5-5.79 3.94-7.17 3.62-1.37-0.33-2.521-2.149-2.19-2.8 0.33-0.66 5.43-3.3 5.21-4.07s-3.84-4.55-4.99-4.5c-1.159 0.061-5.163 1.211-5.933 1.211-0.768 0-1.976-0.82-2.031-1.87-0.055-1.04 7.244-4 6.864-5.601-0.39-1.59-0.88-3.02-1.649-3.51-0.768-0.49-7.136 0.55-7.575-0.66s-0.824-1.92-0.275-2.63c0.55-0.72 4.612-0.99 5.49-1.04 0.879-0.06 4.34-0.77 4.34-3.189 0-2.41-7.304-4.061-7.249-5.381 0.055-1.31 0.878-2.689 2.141-2.689 1.264 0 6.969 3.46 8.568 3.41 1.59-0.061 3.7-3.8 17.76-3.8s21.06 8.25 34.44 10.25c13.38-2.37 47.17-13.58 59.83-20.91 0.17-1.5 4.42-37.59 26.17-54.84s32.25-18 45.75-24.25c0.08 0 1.25-0.41 1.25-3 0-2.58-4.25-4.08-6.33-4.08-6.5 0-8.25 3.75-14.17 3.75-3.33 0-9.75-2.17-11.75-8.08-0.5-0.5-6.42-1.59-6.42-3.92s3.59-4.42 11.5-4.42c7.92 0 17.42-0.41 24.92-5 7.5-4.58 2.42-10.41 0.58-11.66-1.83-1.25-15.83-4.42-25.91-1.17-10.09 3.25-10.59 1.92-14.75 1.92-4.17 0-15.17 0.41-17.42-9.92-1-4.5-2.67-3.67-2.75-5.5s1.67-2.33 1.67-3.92-0.5-1.33-0.92-3.08-2.92-1.92-0.25-4.17 4.17-2.25 10.83-3.25c6.67-1 18.17-2.37 25.67-6.87s7.38-7.75 11.88-10.25 14.5-2.75 21.62-3.25 12.62 1.12 19.88-5.38c3.12-2.87 6.87-3.621 12.62-3.621s13.25 4.621 13.75 10c-0.131 0-5.25-2-14.37 5.75-1.5 1.5 0.37 3.5 2.62 1.25s11.5-5.25 16.38-5.25c4.87 0 14.24 2.5 14.24 20 0 6.87-3 14-3 14s16.5 22.7 16.5 61.7z"/>
<path id="right_arm" d="m228.5 521.6s-14.67 25.33-15.67 31.83c-7-1.83-31.5-14.83-43.83-24.67-12.33-9.83-18.5-18.25-24-32.5s-6-15.16-7.83-20.16c-1.67-1.34-6.67-5.65-6.67-7.46 0-1.811 0.189-1.811 1.689-1.811s4.37 3 5.37 2.87c1-0.12 2.061-1.25 2.061-2.25s-4.74-6.06-4.74-7.25c0-1.189 0.87-2.25 2.18-2.189 1.32 0.069 4.13 4.5 5.63 4.189 1.5-0.31 3-1.12 2.87-2.06-0.12-0.94-3.5-5.5-3.37-6.44 0.12-0.939 1.12-1.87 2.311-1.689 1.189 0.189 5.31 6.939 6.38 7 1.06 0.069 2.31-0.311 2.31-0.931 0-0.63-1.029-7.22-0.5-7.75 0.53-0.54 2.19-1.13 3.061-0.25 0.87 0.87 2.41 8.9 3.31 9.811 0.91 0.899 15.94 4.04 22.77 29.21 1.67 3.5 4.09 8.41 10.34 14.66 7.5 4.9 11.5 10.5 36.2 17.7z"/>
<path id="right_leg" d="m230.5 692.9s3.5 12.67 35.33 31.67c-2.83 5.66-10.83 18.5-11.66 24.5-0.84 6-5.67 23.83 2.33 43.33 1 3.67 4.33 13.33 5.67 16.5 1.33 3.17 2.5 11.5-6.5 15s-26.34 17.83-31.84 21.67c-5.5 3.83-14.83 11.83-29.83 13-15 1.16-26.83 0.66-34.67-2.34-3.83 1.5-7.75 5.92-10 5.92s-2.25-0.67-2.25-1.58c0-0.92 4.71-4.38 4.09-5-0.63-0.63-2.34-1.841-3.59-1.841s-6.271 3.44-8.641 3.44c-2.38 0-2.38-1-2.38-2.06 0-1.061 5.44-4.25 5.44-5.311 0-1.07-3.811-3.63-4.94-3.63-1.12 0-4.31 1.75-5.56 1.75s-4.061-1.25-4.061-2.31c0-1.061 7.12-4.381 7.12-5.25 0-0.881 0.88-3.75-0.56-4.19s-2.311-0.19-3.62-0.19c-1.32 0-4.07 1.131-5.69 1.131-1.63 0-2.31-1.811-1.63-3.131 0.69-1.31 9.53-3.09 11.13-4.68 1.59-1.6 10.56-14.07 24.43-16.32 4.13-1 12.76-2.119 16.5-2.119 3.76 0 14.13 1.5 14.13-7.131-2.87-8.869-10.25-25.37-10.25-38 0.2-12.7 2.2-39.1 51.7-72.9z"/>
<path id="ear_hole" d="m338.8 422.3s-4.25 1.83-5.159 1.83c-0.921 0-1.841-1.17 0.159-2.33 2-1.17 5.091-2.92 7.341-2.92s4.159 2.75 0.909 3.08c-3.2 0.3-2.3-0.1-3.2 0.3z" fill="#fff"/>
<path id="eye" d="m278.8 434.5c0.97-0.24 1.71 0.7 2.25 1.25 0.54 0.54 2.27 0.68 2.59 0.37 0.31-0.311 0.66-0.92 0-1.58-10.29-6.71-10.36-10.9-11.32-11.48-0.979-0.6-1.7-0.88-2.47-0.109-1.19 1.189 0.81 1.88 1.53 3.159 0.8 1.2-1 10.4 7.5 8.3z" fill="#fff"/>
</g>
<path stroke="#fff" stroke-width="8" d="m435.9 316.1-359.6-2.62-49.16-208.4c99.32-34.37 325-35.52 459.7 0z" fill="#fff"/>
<g id="tower" fill="#f00" transform="translate(2.665 .07129)">
<polygon points="228.3 231 279.8 231 279 250 229 250"/>
<polygon points="227.4 206.5 280.7 206.5 280 225.5 228.1 225.5"/>
<polygon points="226.6 182 281.6 182 280.9 201 227.2 201"/>
<polygon points="225.7 157.6 282.6 157.6 281.9 176.6 226.4 176.6"/>
<polygon points="224.8 133.1 283.5 133.1 282.8 152.1 225.5 152.1"/>
<polygon points="223.9 108.6 284.5 108.6 283.7 127.6 224.6 127.6"/>
<polygon points="223 84.16 285.4 84.16 284.7 103.2 223.7 103.2"/>
<polygon points="222.2 59.69 286.4 59.69 285.6 78.69 222.8 78.69"/>
<polygon points="263.1 38.15 263.1 0 249.1 0 248.2 37.4 236.1 37.4 235.6 0 220 0 222 54.4 286.6 54.4 288.7 0 274.5 0 272.9 38.15"/>
</g>
<g fill="#f00">
<path d="m439.3 352.7c-219.3-56-368.7 0-368.7 0l-8.005-28.51 8.5-2.75-1.25-6s194.2-49.75 369.7 3.75l-1.82 4.84 9.33 4z"/>
<path d="m67.64 307.1s205.6-47.1 373.6 3.3c2.6-8.7 4.3-14.4 4.3-14.4s-152.9-46.8-380.9-1.8l3.03 12.9z"/>
</g>
<path stroke="#fff" stroke-width="8" fill="none" d="m75.3 332.1s180-53.33 357.3 4.67"/>
<g id="a">
<g id="stones" transform="translate(.6346 .07129)" fill="#f00">
<polygon points="317.7 76.32 316.7 89.91 295 88.66 295.7 75.32"/>
<polygon points="316 99.65 315.1 112.9 294 111.9 294.6 98.53"/>
<polygon points="314.3 123.9 313.4 137.5 292.8 136.1 293.4 122.8"/>
<polygon points="312.5 150 311.7 162.4 291.6 161.5 292.2 148.8"/>
<polygon points="310.9 173.8 310 186.7 290.5 185.3 291 172.6"/>
<polygon points="309.1 198.6 308.3 210.4 289.4 209.5 290 197.3"/>
<polygon points="307.5 222.2 306.7 233.9 288.3 232.4 288.8 221.4"/>
</g>
<use xlink:href="#tower" transform="matrix(.9954 .09585 -.09585 .9954 110.4 -19.5)" height="986.9287109" width="514" y="0" x="0"/>
<use xlink:href="#tower" transform="matrix(.9816 .1908 -.1908 .9816 223.4 -27.94)" height="986.9287109" width="514" y="0" x="0"/>
<use xlink:href="#stones" width="514" transform="matrix(.9954 .09585 -.09585 .9954 112.4 -19.31)" height="986.9287109"/>
<path d="m54.64 288.7s84.06-22.3 202.4-21.7v-14.5c-75.2 1.3-115.3 6.2-193.9 21.8l-2.47-7.7-12.17 3 6.17 19.1z" fill="#f00"/>
</g>
<use xlink:href="#a" transform="matrix(-1,0,0,1,514,0)" height="987" width="514" y="0" x="0"/>
</svg>
